<svg width="44" height="39" viewBox="0 0 44 39" fill="none" xmlns="http://www.w3.org/2000/svg">
<path d="M39.8403 22.8232L43.3526 7.36904C43.6062 6.25322 42.7581 5.19067 41.6138 5.19067H12.4305L11.7495 1.86134C11.5798 1.0315 10.8496 0.435547 10.0025 0.435547H2.38473C1.3999 0.435547 0.601562 1.23389 0.601562 2.21872V3.4075C0.601562 4.39233 1.3999 5.19067 2.38473 5.19067H7.57696L12.7963 30.7075C11.5476 31.4256 10.7062 32.772 10.7062 34.3158C10.7062 36.6137 12.569 38.4766 14.8669 38.4766C17.1649 38.4766 19.0277 36.6137 19.0277 34.3158C19.0277 33.1513 18.5487 32.0991 17.7777 31.3439H33.3542C32.5833 32.0991 32.1043 33.1513 32.1043 34.3158C32.1043 36.6137 33.9671 38.4766 36.265 38.4766C38.5629 38.4766 40.4257 36.6137 40.4257 34.3158C40.4257 32.6685 39.4682 31.2449 38.0795 30.5708L38.4894 28.7671C38.743 27.6513 37.8948 26.5887 36.7506 26.5887H16.8074L16.3211 24.2112H38.1015C38.934 24.2112 39.6558 23.6351 39.8403 22.8232Z" fill="white"/>
</svg>
