<svg width="47" height="47" viewBox="0 0 47 47" fill="none" xmlns="http://www.w3.org/2000/svg">
<path d="M23.4097 11.2351C16.8741 11.2351 11.6024 16.5068 11.6024 23.0425C11.6024 29.5781 16.8741 34.8498 23.4097 34.8498C29.9454 34.8498 35.2171 29.5781 35.2171 23.0425C35.2171 16.5068 29.9454 11.2351 23.4097 11.2351ZM23.4097 30.7188C19.1862 30.7188 15.7334 27.2763 15.7334 23.0425C15.7334 18.8087 19.1759 15.3661 23.4097 15.3661C27.6435 15.3661 31.0861 18.8087 31.0861 23.0425C31.0861 27.2763 27.6333 30.7188 23.4097 30.7188ZM38.4541 10.7521C38.4541 12.2833 37.221 13.5061 35.7001 13.5061C34.1689 13.5061 32.9461 12.273 32.9461 10.7521C32.9461 9.23124 34.1792 7.9981 35.7001 7.9981C37.221 7.9981 38.4541 9.23124 38.4541 10.7521ZM46.2743 13.5473C46.0996 9.85809 45.257 6.59026 42.5543 3.89789C39.8619 1.20552 36.5941 0.362874 32.905 0.177903C29.1028 -0.0378978 17.7064 -0.0378978 13.9042 0.177903C10.2254 0.352598 6.95753 1.19525 4.25488 3.88761C1.55224 6.57998 0.719869 9.84781 0.534897 13.537C0.319097 17.3392 0.319097 28.7355 0.534897 32.5377C0.709593 36.2268 1.55224 39.4947 4.25488 42.187C6.95753 44.8794 10.2151 45.7221 13.9042 45.907C17.7064 46.1228 29.1028 46.1228 32.905 45.907C36.5941 45.7323 39.8619 44.8897 42.5543 42.187C45.2467 39.4947 46.0893 36.2268 46.2743 32.5377C46.4901 28.7355 46.4901 17.3494 46.2743 13.5473ZM41.3623 36.6173C40.5607 38.6315 39.009 40.1832 36.9846 40.995C33.9531 42.1973 26.7598 41.9199 23.4097 41.9199C20.0597 41.9199 12.8561 42.187 9.83487 40.995C7.82073 40.1935 6.26902 38.6418 5.4572 36.6173C4.25488 33.5859 4.53234 26.3925 4.53234 23.0425C4.53234 19.6924 4.26516 12.4888 5.4572 9.4676C6.25875 7.45346 7.81045 5.90175 9.83487 5.08993C12.8663 3.88761 20.0597 4.16507 23.4097 4.16507C26.7598 4.16507 33.9634 3.89789 36.9846 5.08993C38.9987 5.89147 40.5505 7.44318 41.3623 9.4676C42.5646 12.4991 42.2871 19.6924 42.2871 23.0425C42.2871 26.3925 42.5646 33.5961 41.3623 36.6173Z" fill="black"/>
</svg>
