<svg width="47" height="53" viewBox="0 0 47 53" fill="none" xmlns="http://www.w3.org/2000/svg">
<path d="M46.4361 21.6401C41.9082 21.6509 37.4913 20.2388 33.8093 17.6033V35.9845C33.8081 39.3889 32.7675 42.7118 30.8268 45.5088C28.8861 48.3059 26.1376 50.4437 22.9491 51.6366C19.7605 52.8295 16.2837 53.0205 12.9837 52.184C9.68363 51.3476 6.71759 49.5236 4.48216 46.956C2.24673 44.3883 0.848461 41.1994 0.474325 37.8156C0.100189 34.4318 0.768018 31.0145 2.38851 28.0205C4.00901 25.0265 6.50493 22.5986 9.54254 21.0614C12.5801 19.5243 16.0146 18.9511 19.3868 19.4185V28.6637C17.8437 28.1783 16.1867 28.1929 14.6524 28.7054C13.1181 29.218 11.785 30.2022 10.8434 31.5176C9.90185 32.833 9.4 34.4122 9.40953 36.0299C9.41906 37.6475 9.93947 39.2207 10.8965 40.5249C11.8534 41.8291 13.1981 42.7976 14.7383 43.292C16.2785 43.7864 17.9356 43.7815 19.4729 43.278C21.0102 42.7745 22.349 41.7981 23.2983 40.4882C24.2475 39.1784 24.7587 37.6021 24.7586 35.9845V0.0510025H33.8093C33.8031 0.815316 33.8671 1.57859 34.0006 2.33117C34.3152 4.01119 34.9691 5.6094 35.9224 7.02802C36.8758 8.44665 38.1085 9.65587 39.5452 10.5817C41.5893 11.9333 43.9857 12.6536 46.4361 12.6531V21.6401Z" fill="black"/>
</svg>
