<svg width="52" height="36" viewBox="0 0 52 36" fill="none" xmlns="http://www.w3.org/2000/svg">
<path d="M50.9262 5.63391C50.3376 3.41754 48.6033 1.672 46.4012 1.07962C42.4099 0.00320435 26.4051 0.00320435 26.4051 0.00320435C26.4051 0.00320435 10.4003 0.00320435 6.40889 1.07962C4.20686 1.67209 2.47256 3.41754 1.88393 5.63391C0.814453 9.65122 0.814453 18.0329 0.814453 18.0329C0.814453 18.0329 0.814453 26.4147 1.88393 30.432C2.47256 32.6483 4.20686 34.3212 6.40889 34.9135C10.4003 35.99 26.4051 35.99 26.4051 35.99C26.4051 35.99 42.4098 35.99 46.4012 34.9135C48.6033 34.3212 50.3376 32.6483 50.9262 30.432C51.9957 26.4147 51.9957 18.0329 51.9957 18.0329C51.9957 18.0329 51.9957 9.65122 50.9262 5.63391ZM21.1706 25.6429V10.423L34.5474 18.0331L21.1706 25.6429Z" fill="black"/>
</svg>
