<svg width="1920" height="12779" viewBox="0 0 1920 12779" fill="none" xmlns="http://www.w3.org/2000/svg">
<g style="mix-blend-mode:difference">
<path d="M1586.45 1.0286L1585.48 0.791155L1585 2.73396L1585.97 2.9714L1586.45 1.0286ZM497.01 68.4842L497.047 67.4849L497.027 67.4842L497.006 67.4842L497.01 68.4842ZM1865.86 4874.05L1866.74 4874.53L1866.74 4874.53L1865.86 4874.05ZM101.219 7876.72L102.217 7876.65L101.219 7876.72ZM1768.36 7932.67L1769.35 7932.51L1769.35 7932.51L1768.36 7932.67ZM26.6931 8970.4L25.7668 8970.78L25.7668 8970.78L26.6931 8970.4ZM1768.36 8970.4L1767.46 8970.84L1767.46 8970.84L1768.36 8970.4ZM234.448 9996.86L235.418 9996.62L234.448 9996.86ZM1554.99 10467L1555.94 10466.7L1554.99 10467ZM365.124 11430.7L364.153 11431L364.153 11431L365.124 11430.7ZM1554.99 12041.7L1554 12041.8L1554.99 12041.7ZM1585.97 2.9714C1623.23 12.0787 1647.08 20.4011 1658.77 27.8867C1661.68 29.7515 1663.79 31.5332 1665.16 33.2205C1666.53 34.9036 1667.11 36.4389 1667.11 37.8434C1667.1 40.6389 1664.68 43.6026 1659.03 46.6063C1647.85 52.5501 1625.6 57.7914 1593.2 62.253C1560.86 66.7074 1518.54 70.3683 1467.34 73.2184C1262.52 84.619 915.757 83.0321 497.047 67.4849L496.973 69.4835C915.699 85.0313 1262.53 86.6211 1467.45 75.2153C1518.68 72.3638 1561.06 68.6992 1593.48 64.2343C1625.84 59.7767 1648.43 54.505 1659.97 48.3723C1665.68 45.3378 1669.09 41.8723 1669.11 37.8517C1669.12 35.8481 1668.27 33.8786 1666.71 31.9605C1665.16 30.0466 1662.86 28.1308 1659.85 26.2023C1647.84 18.5147 1623.68 10.1308 1586.45 1.0286L1585.97 2.9714ZM497.01 68.4842C497.006 67.4842 497.004 67.4843 496.998 67.4843C496.993 67.4843 496.985 67.4843 496.975 67.4844C496.955 67.4845 496.924 67.4847 496.884 67.4849C496.803 67.4855 496.683 67.4864 496.525 67.4879C496.207 67.491 495.735 67.4965 495.114 67.5062C493.872 67.5258 492.034 67.5625 489.645 67.631C484.869 67.7681 477.893 68.0325 469.085 68.542C451.472 69.5611 426.534 71.5606 397.226 75.4827C338.622 83.3256 262.502 98.8623 192.537 129.648C122.579 160.431 58.6692 206.508 24.6572 275.493C-9.37026 344.508 -13.3759 436.252 36.0765 558.145L37.9298 557.393C-11.3735 435.868 -7.25607 344.743 26.4511 276.377C60.1737 207.98 123.61 162.163 193.343 131.479C263.068 100.798 338.984 85.2951 397.492 77.465C426.741 73.5507 451.628 71.5554 469.201 70.5387C477.987 70.0304 484.944 69.7667 489.703 69.6302C492.082 69.5619 493.912 69.5254 495.146 69.506C495.763 69.4963 496.231 69.4908 496.544 69.4878C496.701 69.4863 496.819 69.4854 496.897 69.4849C496.936 69.4846 496.966 69.4845 496.985 69.4844C496.995 69.4843 497.002 69.4843 497.007 69.4843C497.012 69.4842 497.014 69.4842 497.01 68.4842ZM36.0765 558.145C60.8762 619.272 102.456 655.528 156.722 673.485C210.932 691.424 277.74 691.083 353.027 679.199C503.583 655.434 688.554 585.412 875.468 522.231C1062.47 459.02 1251.43 402.649 1410.22 405.981C1489.6 407.647 1561.37 424.23 1621.57 462.284C1681.76 500.329 1730.47 559.888 1763.64 647.654L1765.51 646.947C1732.21 558.836 1683.25 498.904 1622.64 460.593C1562.04 422.29 1489.88 405.652 1410.27 403.981C1251.07 400.641 1061.79 457.138 874.827 520.336C687.774 583.564 503.051 653.493 352.715 677.223C277.557 689.087 211.119 689.379 157.351 671.587C103.639 653.813 62.508 617.974 37.9298 557.393L36.0765 558.145ZM1763.64 647.654C1796.8 735.405 1794.65 805.813 1765.76 863.248C1736.86 920.718 1681.1 965.378 1606.7 1001.42C1457.87 1073.52 1234.96 1110.9 1005.04 1147.63C775.212 1184.35 538.424 1220.42 362.145 1289.99C273.997 1324.77 200.884 1367.97 151.324 1423.89C101.736 1479.84 75.7695 1548.48 81.8652 1634.03L83.8601 1633.88C77.8032 1548.88 103.584 1480.77 152.821 1425.21C202.086 1369.63 274.873 1326.58 362.879 1291.85C538.908 1222.38 775.439 1186.34 1005.35 1149.6C1235.17 1112.89 1458.42 1075.48 1607.57 1003.22C1682.17 967.085 1738.37 922.173 1767.55 864.146C1796.75 806.084 1798.81 735.071 1765.51 646.947L1763.64 647.654ZM81.8652 1634.03C87.9591 1719.55 120.485 1776.65 172.839 1812.69C225.137 1848.69 297.084 1863.57 381.852 1864.98C551.371 1867.81 772.797 1816.77 992.488 1772.03C1212.29 1727.26 1430.34 1688.8 1593.43 1716.57C1674.93 1730.44 1742.61 1760.85 1789.91 1815.18C1837.21 1869.51 1864.26 1947.91 1864.26 2057.99L1866.26 2057.99C1866.26 1947.58 1839.12 1868.67 1791.42 1813.87C1743.71 1759.07 1675.55 1728.52 1593.76 1714.59C1430.24 1686.76 1211.81 1725.32 992.089 1770.07C772.257 1814.84 551.124 1865.81 381.886 1862.98C297.276 1861.57 225.796 1846.71 173.973 1811.04C122.207 1775.41 89.9189 1718.91 83.8601 1633.88L81.8652 1634.03ZM1864.26 2057.99C1864.26 2168.07 1835.95 2245.33 1786.54 2298.19C1737.12 2351.06 1666.46 2379.67 1581.48 2392.17C1411.45 2417.19 1184.6 2377.72 957.278 2339.93C730.086 2302.16 502.428 2266.08 331.139 2298.14C245.46 2314.17 173.779 2347.27 123.311 2405.83C72.8411 2464.38 43.6976 2548.26 42.8416 2665.64L44.8415 2665.66C45.6952 2548.6 74.7531 2465.23 124.826 2407.13C174.903 2349.03 246.107 2316.09 331.507 2300.1C502.374 2268.13 729.642 2304.11 956.95 2341.9C1184.13 2379.67 1411.35 2419.23 1581.77 2394.15C1667.01 2381.61 1738.16 2352.88 1788 2299.56C1837.86 2246.22 1866.26 2168.42 1866.26 2057.99L1864.26 2057.99ZM42.8416 2665.64C41.9857 2783.02 70.7265 2861.74 121.683 2911.88C172.63 2962.01 245.608 2983.39 332.844 2986.47C420.082 2989.54 521.717 2974.31 630.138 2951.09C738.56 2927.86 853.854 2896.62 968.383 2867.64C1082.93 2838.65 1196.73 2811.93 1302.24 2797.71C1407.77 2783.49 1504.92 2781.79 1586.2 2802.79C1667.44 2823.79 1732.82 2867.47 1774.88 2944.05C1816.97 3020.67 1835.79 3130.34 1823.65 3283.43L1825.64 3283.59C1837.8 3130.3 1818.99 3020.18 1776.64 2943.08C1734.26 2865.94 1668.38 2821.97 1586.7 2800.86C1505.05 2779.76 1407.6 2781.49 1301.98 2795.73C1196.34 2809.96 1082.45 2836.71 967.892 2865.7C853.316 2894.69 738.093 2925.92 629.719 2949.13C521.343 2972.35 419.901 2987.53 332.914 2984.47C245.925 2981.4 173.529 2960.09 123.086 2910.46C72.6531 2860.83 43.9879 2782.72 44.8415 2665.66L42.8416 2665.64ZM1823.65 3283.43C1811.51 3436.5 1773.6 3550.33 1716.73 3634.18C1659.88 3718.01 1584.03 3771.93 1495.87 3805.08C1319.49 3871.42 1093.93 3854.66 872.923 3828.02C762.47 3814.71 653.148 3798.93 551.81 3789.89C450.468 3780.84 357.004 3778.51 278.222 3792.11C199.43 3805.72 135.219 3835.28 92.5298 3890.12C49.8444 3944.95 28.8086 4024.88 36.0052 4138.93L38.0012 4138.8C30.8221 4025.03 51.8302 3945.65 94.1079 3891.35C136.382 3837.05 200.053 3807.64 278.562 3794.08C357.081 3780.52 450.335 3782.83 551.632 3791.88C652.931 3800.92 762.164 3816.69 872.684 3830.01C1093.63 3856.64 1319.68 3873.49 1496.58 3806.95C1585.07 3773.67 1661.27 3719.52 1718.39 3635.3C1775.5 3551.09 1813.48 3436.9 1825.64 3283.59L1823.65 3283.43ZM36.0052 4138.93C43.2072 4253.07 83.8791 4338.13 148.756 4401.06C213.612 4463.97 302.585 4504.69 406.289 4530.29C613.668 4581.48 880.301 4572.3 1131.73 4558.85C1257.48 4552.13 1379.43 4544.33 1488.34 4542.47C1597.26 4540.61 1693.05 4544.69 1766.48 4561.67C1839.95 4578.66 1890.76 4608.49 1910.2 4657.91C1929.65 4707.37 1917.84 4776.85 1864.98 4873.57L1866.74 4874.53C1919.66 4777.68 1931.85 4707.5 1912.06 4657.18C1892.25 4606.81 1840.59 4576.75 1766.93 4559.72C1693.24 4542.68 1597.25 4538.61 1488.3 4540.47C1379.35 4542.34 1257.34 4550.13 1131.63 4556.86C880.14 4570.31 613.809 4579.46 406.768 4528.35C303.261 4502.8 214.66 4462.2 150.149 4399.63C85.6603 4337.08 45.1748 4252.49 38.0012 4138.8L36.0052 4138.93ZM1864.98 4873.57C1736.59 5108.48 1543.81 5211.36 1331.38 5247.03C1118.89 5282.71 886.78 5251.12 679.831 5217.05C576.385 5200.01 479.204 5182.35 393.979 5172.19C308.77 5162.03 235.371 5159.34 179.499 5172.32C123.56 5185.32 85.0695 5214.05 69.9872 5266.74C54.9435 5319.3 63.2498 5395.51 100.274 5503.33L102.165 5502.68C65.1731 5394.95 57.0419 5319.24 71.91 5267.29C86.7393 5215.49 124.51 5187.15 179.951 5174.27C235.46 5161.38 308.561 5164.02 393.742 5174.18C478.908 5184.33 576.009 5201.98 679.506 5219.02C886.442 5253.1 1118.86 5284.74 1331.71 5249C1544.63 5213.25 1738 5110.07 1866.74 4874.53L1864.98 4873.57ZM100.274 5503.33C174.422 5719.27 330.683 5826.91 519.531 5874.36C708.318 5921.8 929.724 5909.11 1134.37 5884.46C1236.69 5872.14 1334.88 5856.82 1422.7 5844.51C1510.55 5832.2 1588.02 5822.92 1649 5822.64C1679.49 5822.51 1705.81 5824.62 1727.22 5829.72C1748.64 5834.82 1765.06 5842.88 1775.84 5854.57C1797.32 5877.84 1796.92 5916.07 1767.46 5975.86L1769.26 5976.75C1798.76 5916.86 1799.73 5877.49 1777.31 5853.21C1766.15 5841.12 1749.3 5832.92 1727.68 5827.78C1706.05 5822.63 1679.56 5820.51 1648.99 5820.64C1587.86 5820.92 1510.27 5830.23 1422.43 5842.53C1334.56 5854.84 1236.43 5870.16 1134.13 5882.48C929.518 5907.12 708.425 5919.76 520.019 5872.42C331.674 5825.1 176.048 5717.85 102.165 5502.68L100.274 5503.33ZM1767.46 5975.86C1738.1 6035.46 1685.47 6083.63 1616.31 6123.56C1547.15 6163.5 1461.52 6195.17 1366.26 6221.8C1175.72 6275.08 946.887 6308.18 734.576 6347.1C522.355 6386.01 326.581 6430.76 202.474 6507.41C140.396 6545.75 96.1462 6592.13 76.7915 6649.85C57.4336 6707.57 63.0395 6776.47 100.307 6859.69L102.132 6858.88C65.0007 6775.95 59.5363 6707.6 78.6878 6650.48C97.8426 6593.36 141.682 6547.3 203.525 6509.11C327.259 6432.69 522.652 6387.99 734.937 6349.07C947.131 6310.16 1176.14 6277.04 1366.8 6223.73C1462.14 6197.07 1547.95 6165.35 1617.31 6125.29C1686.68 6085.24 1739.66 6036.82 1769.26 5976.75L1767.46 5975.86ZM100.307 6859.69C137.586 6942.95 189.455 6997.55 251.99 7030.41C314.509 7063.25 387.604 7074.31 467.276 7070.62C626.582 7063.25 812.473 6996.92 993.34 6927.44C1174.3 6857.93 1350.2 6785.3 1489.78 6765.1C1559.56 6755 1620.1 6758.04 1667.61 6781C1715.06 6803.94 1749.65 6846.84 1767.39 6916.83L1769.33 6916.34C1751.47 6845.9 1716.56 6802.45 1668.48 6779.2C1620.45 6755.99 1559.44 6753 1489.49 6763.12C1349.63 6783.36 1173.45 6856.12 992.623 6925.58C811.706 6995.07 626.114 7061.27 467.184 7068.62C387.739 7072.3 315.028 7061.26 252.92 7028.63C190.829 6996.02 139.251 6941.77 102.132 6858.88L100.307 6859.69ZM1767.39 6916.83C1785.12 6986.76 1771.97 7046.18 1735.47 7097.69C1698.93 7149.24 1638.95 7192.91 1562.94 7231.19C1410.91 7307.75 1195.15 7362.52 975.804 7415.65C756.523 7468.77 533.668 7520.26 367.673 7590.26C284.674 7625.26 215.802 7664.92 168.683 7711.81C121.539 7758.71 96.1472 7812.88 100.221 7876.78L102.217 7876.65C98.1874 7813.44 123.266 7759.82 170.094 7713.22C216.947 7666.61 285.549 7627.06 368.45 7592.1C534.258 7522.18 756.917 7470.73 976.275 7417.6C1195.57 7364.47 1411.57 7309.66 1563.84 7232.98C1639.98 7194.63 1700.29 7150.78 1737.1 7098.84C1773.94 7046.86 1787.2 6986.84 1769.33 6916.34L1767.39 6916.83ZM100.221 7876.78C104.19 7939.04 132.186 7979 178.311 8002.09C224.339 8025.12 288.326 8031.3 364.255 8026.33C516.129 8016.4 716.419 7961.8 917.979 7907.13C1119.61 7852.43 1322.53 7797.66 1479.85 7787.25C1558.51 7782.05 1625.64 7787.94 1675.47 7810.39C1725.23 7832.8 1757.79 7871.73 1767.37 7932.82L1769.35 7932.51C1759.66 7870.74 1726.65 7831.25 1676.29 7808.57C1626.01 7785.92 1558.49 7780.04 1479.71 7785.26C1322.15 7795.68 1119.02 7850.52 917.455 7905.2C715.816 7959.89 515.752 8014.42 364.125 8024.34C288.303 8029.3 224.752 8023.09 179.206 8000.3C133.757 7977.55 106.144 7938.24 102.217 7876.65L100.221 7876.78ZM1767.37 7932.82C1777.66 7998.41 1755.17 8055.96 1708.19 8107.5C1661.18 8159.08 1589.67 8204.6 1502.06 8246C1326.83 8328.82 1087.52 8395.03 851.868 8460.45C616.281 8525.85 384.336 8590.47 224.036 8670.09C143.892 8709.89 81.532 8753.51 45.597 8802.95C9.60993 8852.46 0.153271 8907.79 25.7668 8970.78L27.6195 8970.03C2.27702 8907.7 11.6173 8853.1 47.2148 8804.12C82.8644 8755.07 144.876 8711.64 224.926 8671.88C385.016 8592.36 616.747 8527.8 852.403 8462.38C1087.99 8396.97 1327.49 8330.71 1502.91 8247.81C1590.62 8206.36 1662.4 8160.71 1709.67 8108.85C1756.96 8056.97 1779.75 7998.83 1769.35 7932.51L1767.37 7932.82ZM25.7668 8970.78C48.1305 9025.78 89.0535 9060.3 143.852 9079.43C198.609 9098.54 267.221 9102.29 345.06 9095.82C500.733 9082.88 693.708 9029.05 887.413 8974.96C1081.18 8920.86 1275.68 8866.49 1434.59 8852.37C1593.58 8838.25 1716.36 8864.47 1767.46 8970.84L1769.26 8969.97C1717.55 8862.34 1593.46 8836.26 1434.41 8850.38C1275.28 8864.52 1080.58 8918.95 886.875 8973.04C693.106 9027.14 500.337 9080.91 344.894 9093.82C267.176 9100.28 198.886 9096.52 144.511 9077.54C90.1777 9058.57 49.7377 9024.42 27.6195 8970.03L25.7668 8970.78ZM1767.46 8970.84C1797.86 9034.12 1794.68 9089.05 1766.19 9137.87C1737.66 9186.76 1683.69 9229.63 1612.31 9268.57C1469.54 9346.43 1257.65 9408.24 1042.18 9471.07C826.78 9533.88 607.819 9597.68 451.142 9679.53C372.802 9720.46 309.935 9765.94 270.874 9818.14C231.781 9870.39 216.548 9929.36 233.477 9997.1L235.418 9996.62C218.648 9929.51 233.708 9871.15 272.476 9819.34C311.276 9767.49 373.838 9722.17 452.068 9681.3C608.53 9599.57 827.273 9535.81 1042.74 9472.99C1258.13 9410.19 1470.26 9348.31 1613.26 9270.32C1684.76 9231.33 1739.11 9188.24 1767.92 9138.88C1796.77 9089.43 1799.93 9033.8 1769.26 8969.97L1767.46 8970.84ZM233.477 9997.1C263.578 10117.6 351.945 10177.6 469.634 10207.3C587.264 10237 734.396 10236.4 882.379 10235.7C1030.44 10234.9 1179.35 10234 1300.81 10262.7C1422.22 10291.4 1515.98 10349.6 1554.04 10467.3L1555.94 10466.7C1517.58 10348.1 1423.05 10289.5 1301.27 10260.7C1179.53 10232 1030.35 10232.9 882.368 10233.7C734.309 10234.4 587.457 10235 470.124 10205.3C352.85 10175.7 265.275 10116.1 235.418 9996.62L233.477 9997.1ZM1554.04 10467.3C1575.63 10534 1571.17 10590.5 1547.18 10639.4C1523.18 10688.4 1479.57 10729.8 1422.67 10766.2C1308.85 10839 1142.21 10891.7 974.18 10944.7C806.235 10997.7 636.907 11051 518.009 11125.1C458.547 11162.1 411.615 11204.4 383.781 11254.6C355.931 11304.8 347.247 11362.7 364.153 11431L366.094 11430.5C349.301 11362.7 357.941 11305.3 385.53 11255.5C413.137 11205.8 459.761 11163.7 519.067 11126.7C637.703 11052.8 806.752 10999.6 974.782 10946.6C1142.72 10893.6 1309.66 10840.9 1423.75 10767.9C1480.81 10731.3 1524.75 10689.7 1548.98 10640.3C1573.22 10590.9 1577.67 10533.9 1555.94 10466.7L1554.04 10467.3ZM364.153 11431C392.995 11547.4 478.488 11614.3 591.118 11656.5C703.709 11698.6 843.606 11716.2 981.538 11734.1C1119.54 11751.9 1255.57 11770 1360.68 11813.1C1465.73 11856.2 1539.73 11924.2 1554 12041.8L1555.98 12041.5C1541.6 11923 1466.91 11854.5 1361.44 11811.3C1256.04 11768.1 1119.73 11749.9 981.795 11732.1C843.79 11714.3 704.149 11696.7 591.819 11654.6C479.528 11612.5 394.718 11546.1 366.094 11430.5L364.153 11431ZM1554 12041.8C1569.75 12171.6 1498.59 12282.5 1382.61 12375.9C1266.64 12469.2 1106.03 12544.9 943.363 12604.4C780.712 12663.8 616.075 12707 492.094 12735.3C430.105 12749.4 378.284 12759.9 341.961 12766.8C323.8 12770.2 309.513 12772.8 299.768 12774.5C294.896 12775.3 291.158 12776 288.64 12776.4C287.381 12776.6 286.426 12776.8 285.786 12776.9C285.467 12776.9 285.226 12776.9 285.065 12777C284.984 12777 284.924 12777 284.883 12777C284.863 12777 284.848 12777 284.838 12777C284.828 12777 284.823 12777 284.983 12778C285.142 12779 285.147 12779 285.157 12779C285.168 12779 285.183 12779 285.203 12779C285.244 12779 285.305 12779 285.386 12778.9C285.548 12778.9 285.79 12778.9 286.111 12778.8C286.753 12778.7 287.709 12778.6 288.971 12778.4C291.494 12777.9 295.235 12777.3 300.112 12776.4C309.866 12774.7 324.163 12772.2 342.334 12768.7C378.677 12761.8 430.523 12751.4 492.539 12737.2C616.568 12708.9 781.293 12665.7 944.05 12606.3C1106.79 12546.8 1267.64 12471 1383.86 12377.4C1500.08 12283.8 1571.86 12172.4 1555.98 12041.5L1554 12041.8Z" fill="white" fill-opacity="0.5"/>
</g>
</svg>
