<svg width="346" height="249" viewBox="0 0 346 249" fill="none" xmlns="http://www.w3.org/2000/svg">
<g clip-path="url(#clip0_541_542)">
<path d="M177.349 4.92252C176.434 7.07454 175.61 8.90604 174.878 10.7719C174.603 11.4701 174.249 11.8365 173.482 11.6876C173.345 11.6647 173.207 11.6647 173.07 11.6876C171.468 11.928 170.564 11.3671 169.97 9.74167C168.894 6.79981 167.533 3.97243 166.274 1.07636C166.48 1.01912 166.572 0.973337 166.652 0.973337C170.507 0.881762 170.507 0.881762 171.789 4.51043C172.155 5.52921 172.51 6.54798 172.99 7.88727C173.963 5.84972 174.889 4.09834 175.622 2.26684C175.999 1.33964 176.548 1.21372 177.395 1.2824C178.23 1.35109 178.939 1.36253 179.271 2.41565C179.866 4.28149 180.633 6.0901 181.434 8.23068C182.257 6.38772 183.081 4.7966 183.676 3.12536C184.111 1.91198 184.672 1.32819 186.033 1.6487C186.857 1.8433 187.726 1.78607 188.722 1.85475C186.994 5.14001 185.301 8.3108 183.653 11.493C183.276 12.2371 182.669 11.9967 182.109 11.9853C179.695 11.928 179.695 11.9166 178.917 9.6272C178.436 8.15055 177.944 6.69679 177.349 4.92252Z" fill="white"/>
<path d="M142.168 12.3892C141.516 10.1914 140.99 8.31408 140.383 6.47112C140.143 5.73852 140.223 5.42946 141.047 5.2692C142.099 5.06315 143.335 4.18174 144.102 4.50226C144.937 4.85711 144.891 6.41389 145.223 7.44411C145.875 9.48166 146.436 11.5536 147.099 13.5911C147.282 14.1634 147.179 14.3924 146.63 14.5526C145.372 14.9189 144.113 15.3081 142.866 15.7202C142.294 15.9148 141.905 15.5829 141.493 15.3081C139.251 13.8429 137.019 12.3663 134.514 10.7179C135.177 12.9272 135.715 14.8388 136.333 16.739C136.55 17.3915 136.436 17.6319 135.761 17.8608C132.443 18.9826 132.454 19.0055 131.448 15.6515C130.876 13.7285 130.326 11.7939 129.709 9.89375C129.457 9.11536 129.422 8.76051 130.395 8.46289C134.342 7.28385 134.331 7.23807 137.763 9.50455C139.125 10.4089 140.498 11.3017 142.168 12.3892Z" fill="white"/>
<path d="M160.764 1.76265C162.148 1.4078 161.565 2.73564 161.794 3.39956C162.137 4.40689 161.382 4.23518 160.821 4.30387C158.876 4.56714 156.943 4.85332 155.009 5.10515C154.483 5.17383 154.254 5.37988 154.38 5.89499C154.494 6.34142 154.368 6.93665 155.215 6.79929C156.828 6.54746 158.476 6.44444 160.089 6.14682C161.153 5.94077 161.027 6.61614 161.164 7.22283C161.348 8.05845 160.856 8.0699 160.238 8.13858C158.739 8.28739 157.263 8.55067 155.764 8.71093C154.986 8.79105 154.815 9.14591 154.918 9.88996C155.032 10.6683 155.421 10.5195 155.97 10.4394C158.087 10.096 160.203 9.84417 162.32 9.52365C163.007 9.42063 163.441 9.61523 163.338 10.3478C163.258 10.9431 164.196 11.8932 162.732 12.0878C159.117 12.5685 155.524 13.0951 151.92 13.6216C151.302 13.7132 151.05 13.5301 150.959 12.8662C150.581 9.9243 150.147 6.98244 149.735 4.05203C149.677 3.61705 149.632 3.28509 150.261 3.20496C153.682 2.74709 157.114 2.26632 160.764 1.76265Z" fill="white"/>
<path d="M209.688 9.46607C207.754 8.93952 205.878 8.41296 203.99 7.89785C203.441 7.74904 202.892 7.46287 202.64 8.40151C202.4 9.27148 202.811 9.3745 203.475 9.53476C204.974 9.90106 206.427 10.4162 207.937 10.7481C208.807 10.9313 208.612 11.3319 208.463 11.9043C208.303 12.4995 208.189 12.9345 207.399 12.6827C205.969 12.2362 204.528 11.847 203.086 11.4693C202.525 11.3205 201.908 10.9542 201.667 12.0187C201.45 12.9803 201.999 12.9345 202.571 13.0833C204.505 13.587 206.404 14.1822 208.349 14.6401C209.276 14.8576 209.527 15.2124 209.173 16.0938C208.91 16.7578 209.07 17.5819 207.777 17.1927C204.402 16.1625 200.969 15.2926 197.537 14.4111C196.736 14.2051 196.679 13.8502 196.862 13.1634C197.64 10.4047 198.395 7.63457 199.116 4.85297C199.299 4.15471 199.562 4.04024 200.226 4.23484C203.544 5.17348 206.862 6.11213 210.202 6.94775C211.106 7.17669 210.912 7.66891 210.706 8.13823C210.477 8.6419 210.797 9.67212 209.688 9.46607Z" fill="white"/>
<path d="M344.638 121.039C342.647 115.133 338.951 110.382 334.444 106.216C327.327 99.6336 318.987 95.0205 310.165 91.2201C298.244 86.0805 285.773 82.8524 273.027 80.5631C272.318 80.4371 271.883 80.1968 271.585 79.5328C270.83 77.8272 270.064 76.1331 269.229 74.4619C268.908 73.8094 268.965 73.5347 269.663 73.2599C271.116 72.699 272.592 72.2869 274.125 72.0237C278.462 71.2796 282.844 71.1652 287.226 71.1652C287.603 71.1652 288.118 71.4055 288.484 70.6615C287.569 70.6615 286.802 70.6615 286.047 70.6615C282.066 70.6958 278.107 70.4554 274.183 69.8259C266.677 68.6239 263.371 65.3158 262.124 57.8295C261.426 53.6628 261.426 49.4618 261.357 45.2608C261.346 44.8029 261.551 44.2878 261.037 43.6926C260.762 49.0039 261.071 54.1894 259.847 59.6038C256.346 53.308 250.945 49.107 246.289 44.242C245.03 42.9256 243.852 41.4375 242.365 40.4302C234.699 35.2219 227.502 29.2695 218.67 25.9384C214.425 24.3359 210.558 21.8404 206.073 20.8331C203.453 20.2379 200.867 19.5167 198.259 18.9215C194.094 17.9828 190.032 16.5977 185.708 16.3459C179.358 15.9796 173.008 16.0597 166.669 16.1284C162.345 16.1742 158.008 16.3574 153.775 17.4563C148.672 18.7841 143.524 19.9402 138.455 21.3826C134.519 22.5043 130.996 24.7022 127.254 26.3391C124.588 27.5066 121.74 28.3881 119.348 29.9792C111.053 35.5195 102.61 40.8995 95.9739 48.5575C94.5094 50.2402 92.8161 51.7283 91.2372 53.3194C90.8482 53.7086 90.4707 54.1093 90.1617 54.5557C86.6378 59.5923 83.1139 64.6404 79.6129 69.6999C79.3154 70.1235 78.9951 70.3181 78.5146 70.3753C73.1372 71.0736 67.8284 72.1381 62.5655 73.4087C46.4677 77.2664 30.9533 82.5663 17.3611 92.3877C12.0982 96.1766 7.51024 100.641 4.16939 106.296C0.645494 112.26 -0.464307 118.555 1.17179 125.343C2.57906 131.204 5.80549 135.989 9.85569 140.282C15.2445 145.982 21.7431 150.206 28.6536 153.777C41.7653 160.554 55.7465 164.789 70.2082 167.388C73.5262 167.983 75.517 169.174 76.6382 172.379C77.645 175.252 77.8739 175.183 74.922 175.984C69.8879 177.347 64.7279 177.358 59.5793 177.473C59.1217 177.484 58.6068 177.335 57.8402 177.896C58.6869 177.896 59.156 177.885 59.6251 177.896C64.1901 177.976 68.7437 178.125 73.2516 178.984C79.5099 180.174 82.7021 183.127 84.0636 189.343C85.0818 193.968 85.059 198.684 85.1047 203.388C85.1047 203.835 85.139 204.281 85.1619 204.728C85.2878 204.728 85.4136 204.716 85.5395 204.716C85.631 199.565 85.448 194.38 86.7179 189.24C89.2693 193.716 92.9534 197.15 96.5688 200.63C100.505 204.43 104.143 208.539 108.88 211.447C113.822 214.48 118.17 218.452 123.685 220.639C127.986 222.344 132.071 224.599 136.327 226.408C140.572 228.205 145.16 228.835 149.599 229.968C153.203 230.895 156.773 231.994 160.548 232.223C166.395 232.589 172.23 232.521 178.076 232.498C184.117 232.475 190.067 231.994 195.925 230.3C202.412 228.423 209.151 227.415 215.249 224.245C219.15 222.219 223.509 220.959 227.171 218.59C235.351 213.301 243.612 208.047 250.122 200.572C251.769 198.684 253.668 197.012 255.442 195.238C255.762 194.918 256.094 194.586 256.346 194.219C259.915 189.103 263.485 183.974 267.02 178.835C267.329 178.388 267.673 178.262 268.13 178.194C274.206 177.278 280.235 176.099 286.196 174.611C298.85 171.451 311.115 167.239 322.407 160.577C329.455 156.422 335.885 151.5 340.656 144.723C345.759 137.477 347.532 129.624 344.638 121.039ZM267.478 74.3817C268.165 74.107 268.107 74.7824 268.279 75.1143C269.023 76.6597 269.743 78.2164 270.476 79.7618C270.19 80.2769 269.526 79.7389 269.309 80.2654C270.579 80.2082 271.139 80.9751 271.563 82.0512C272.066 83.3561 272.73 84.5924 273.359 85.9317C272.169 86.1263 271.46 85.76 271.048 84.6267C270.544 83.2302 269.892 81.8909 269.309 80.5173C269.24 80.46 269.206 80.4028 269.229 80.3456C268.508 78.8117 267.833 77.2663 267.055 75.7668C266.677 75.0685 266.814 74.645 267.478 74.3817ZM263.371 79.2581C263.977 78.0447 264.572 76.8314 265.716 75.824C267.203 79.1093 268.668 82.3144 270.178 85.634C269.801 85.6111 269.583 85.5654 269.366 85.5997C265.888 86.1377 264.149 84.352 263.359 81.1812C263.188 80.4829 263.039 79.922 263.371 79.2581ZM262.535 82.3602C262.764 82.8524 262.982 83.2645 263.165 83.6995C263.359 84.1459 263.519 84.6153 263.737 85.1533C261.643 85.1876 261.494 84.8099 262.535 82.3602ZM260.224 84.0315C260.35 84.6954 260.201 84.9587 259.412 84.9587C255.694 84.9587 255.682 84.993 254.355 81.5132C253.268 78.6858 252.193 75.8469 251.003 72.7105C254.286 73.7064 256.78 75.2631 258.336 78.0905C259.355 79.9564 259.835 81.9825 260.224 84.0315ZM212.617 83.8025C211.702 83.8254 211.302 83.6423 211.13 82.5892C210.363 77.7357 209.482 72.9051 208.59 68.0745C208.43 67.2389 208.464 66.9527 209.425 66.9756C213.487 67.09 217.537 67.1358 221.599 67.1702C222.445 67.1816 222.823 67.3991 223.052 68.3263C224.219 73.1798 225.477 78.0104 226.747 82.841C227.01 83.8369 226.736 84.0544 225.752 84.02C223.567 83.9399 221.381 83.9971 219.185 83.9971C219.185 83.917 219.185 83.8483 219.185 83.7682C216.988 83.7911 214.803 83.7568 212.617 83.8025ZM174.896 83.5622C174.118 83.5736 173.912 83.3447 173.912 82.5777C173.946 77.6098 173.946 72.6304 173.9 67.6624C173.889 66.8497 174.072 66.5635 174.953 66.5749C179.735 66.6551 184.529 66.678 189.312 66.678C190.044 66.678 190.307 66.8382 190.376 67.6509C190.765 72.4243 191.188 77.1862 191.691 81.9367C191.829 83.1958 191.634 83.6766 190.215 83.5965C187.756 83.4591 185.296 83.5622 182.836 83.5622C182.836 83.5507 182.836 83.5507 182.836 83.5393C180.181 83.5393 177.538 83.5164 174.896 83.5622ZM173.9 51.7283C173.889 50.8698 174.14 50.6523 174.976 50.6752C179.037 50.7553 183.087 50.7782 187.149 50.7782C187.87 50.7782 188.156 50.9385 188.259 51.7169C188.82 56.0438 189.437 60.3707 190.067 64.6976C190.181 65.4646 189.826 65.4989 189.231 65.4875C186.817 65.4646 184.403 65.476 181.978 65.476C181.978 65.4646 181.978 65.4646 181.978 65.4531C179.655 65.4531 177.333 65.4302 174.999 65.4646C174.232 65.476 173.889 65.373 173.9 64.4573C173.957 60.2105 173.946 55.9637 173.9 51.7283ZM249.126 67.1015C248.783 67.0786 248.646 66.8611 248.52 66.6322C245.866 62.0191 243.223 57.406 240.488 52.6555C242.479 52.8158 244.252 52.9989 246.026 53.0905C246.655 53.1248 247.021 53.3652 247.341 53.8689C249.927 57.944 252.513 62.0191 255.156 66.0598C255.819 67.0786 255.362 67.4106 254.458 67.3877C252.673 67.3533 250.9 67.1931 249.126 67.1015ZM252.387 68.5095C251.632 69.1162 250.865 69.1963 250.145 69.3794C249.607 69.5168 249.55 69.0589 249.504 68.7155C249.447 68.2576 249.836 68.4064 250.064 68.4064C250.785 68.4293 251.495 68.4751 252.387 68.5095ZM186.852 37.786C190.376 37.786 193.865 37.786 197.366 37.786C197.721 37.786 197.927 37.9119 198.076 38.2782C199.54 42.0786 201.016 45.8675 202.457 49.5763C198.144 49.5763 193.922 49.5763 189.701 49.5763C189.22 49.5763 189.094 49.3016 189.014 48.9009C188.282 45.1578 187.55 41.4146 186.852 37.786ZM187.893 49.4962C183.442 49.4962 179.072 49.4847 174.69 49.5076C174.095 49.5076 173.9 49.313 173.912 48.7178C173.934 45.2036 173.923 41.6779 173.912 38.1637C173.912 37.6372 174.072 37.454 174.61 37.454C178.03 37.4883 181.463 37.4998 184.884 37.4998C185.376 37.4998 185.605 37.6829 185.708 38.1866C186.405 41.9526 187.149 45.6958 187.893 49.4962ZM215.855 49.8167C211.999 49.8167 208.224 49.8052 204.448 49.8281C203.899 49.8281 203.75 49.5534 203.602 49.1527C202.263 45.6843 200.947 42.2045 199.574 38.7361C199.288 38.0035 199.334 37.7745 200.181 37.8089C202.915 37.9348 205.65 38.0149 208.384 38.095C208.956 38.1179 209.391 38.1981 209.723 38.7933C211.748 42.5021 213.819 46.1765 215.855 49.8167ZM210.981 38.5987C213.658 38.5987 216.29 38.5987 218.921 38.5987C219.333 38.5987 219.585 38.7933 219.814 39.1138C222.491 42.8913 225.18 46.6688 227.731 50.2516C224.528 50.2516 221.278 50.2516 218.018 50.2516C217.526 50.2516 217.32 49.9426 217.114 49.5648C215.054 45.8675 212.995 42.193 210.981 38.5987ZM190.456 50.8011C194.288 50.8927 198.121 50.9041 201.954 50.9385C202.446 50.9385 202.938 50.8469 203.121 51.5451C204.345 56.2384 205.592 60.9202 206.805 65.476C201.828 65.476 196.908 65.4646 191.977 65.4875C191.417 65.4875 191.291 65.1784 191.234 64.732C190.662 60.4394 190.112 56.1468 189.517 51.8657C189.392 51.03 189.563 50.7782 190.456 50.8011ZM204.528 52.1747C204.288 51.3048 204.322 51.0644 205.295 51.0987C208.762 51.2475 212.228 51.3277 215.695 51.3849C216.45 51.3963 216.793 51.6367 217.068 52.3579C218.647 56.6047 220.271 60.8515 221.953 65.0639C222.319 65.9683 222.056 66.0369 221.267 66.0255C219.265 65.9911 217.251 66.014 215.249 66.014C215.249 65.9225 215.249 65.8194 215.249 65.7279C213.201 65.7279 211.141 65.705 209.093 65.7393C208.373 65.7508 208.075 65.5333 207.892 64.8121C206.805 60.5882 205.695 56.3643 204.528 52.1747ZM218.155 51.8657C221.541 51.8657 224.974 51.8657 228.395 51.8657C228.864 51.8657 228.978 52.232 229.138 52.5525C231.347 57.074 233.555 61.5955 235.763 66.1285C235.797 66.1972 235.763 66.3002 235.751 66.4719C231.896 66.3346 228.029 66.1743 224.173 66.0598C223.624 66.0484 223.498 65.7279 223.349 65.3501C221.599 60.7714 219.837 56.2155 218.155 51.8657ZM230.214 51.9343C233.154 52.1289 235.866 52.3235 238.577 52.4952C238.955 52.5181 239.138 52.7242 239.298 53.0104C241.884 57.5548 244.481 62.0877 247.067 66.6322C247.101 66.7009 247.067 66.8039 247.067 66.9985C243.989 66.8497 240.911 66.6894 237.822 66.552C237.456 66.5406 237.273 66.4261 237.102 66.0827C234.871 61.4353 232.594 56.7993 230.214 51.9343ZM247.25 68.189C248.337 68.2233 248.211 69.0475 248.508 69.7228C245.477 70.341 242.479 70.3868 239.504 70.6386C238.978 70.6844 238.669 70.5699 238.543 69.9632C238.394 69.2306 238.108 68.5324 237.845 67.7311C241.072 67.9028 244.161 68.0745 247.25 68.189ZM239.825 51.2933C239.607 51.2819 239.378 50.9957 239.207 50.7896C236.175 47.1495 233.154 43.498 230.145 39.8464C230.065 39.7434 230.042 39.606 229.962 39.4229C231.404 39.5946 232.8 39.7892 234.195 39.9036C234.733 39.9494 234.996 40.2699 235.305 40.6019C238.68 44.242 242.044 47.8936 245.602 51.7283C243.52 51.8084 241.678 51.4307 239.825 51.2933ZM237.983 51.259C235.042 51.0529 232.399 50.8583 229.756 50.6637C229.436 50.6408 229.322 50.3776 229.161 50.1486C226.53 46.4513 223.898 42.7654 221.072 38.7933C223.395 38.9421 225.386 39.068 227.388 39.1825C227.823 39.2054 228.155 39.4 228.441 39.7319C231.53 43.4865 234.642 47.2297 237.983 51.259ZM221.336 37.5456C220.397 37.5227 219.745 37.1793 219.093 36.5383C216.736 34.2031 214.322 31.9137 211.931 29.6014C211.61 29.2924 211.187 29.0634 211.073 28.5827C211.107 28.5712 211.141 28.5483 211.164 28.5369C214.471 28.2278 216.931 29.7846 219.23 31.948C221.015 33.6307 223.006 35.0845 224.894 36.6642C225.329 37.0305 225.901 37.2938 226.107 37.9233C224.516 37.786 222.926 37.5914 221.336 37.5456ZM217.583 36.8015C217.743 36.9618 217.915 37.1106 217.88 37.3853C215.523 37.2594 213.155 37.122 210.798 36.9961C210.398 36.9732 209.997 37.0076 209.688 36.6298C207.434 33.8597 205.169 31.0895 202.766 28.1591C204.849 28.079 206.679 28.2278 208.521 28.3766C208.876 28.411 209.093 28.6055 209.322 28.823C212.068 31.4787 214.825 34.1458 217.583 36.8015ZM208.109 36.6184C205.123 36.6184 202.217 36.6184 199.3 36.6184C198.979 36.6184 198.693 36.6069 198.499 36.2635C196.897 33.4361 195.272 30.6088 193.728 27.8958C195.97 27.8958 198.144 27.9073 200.329 27.8958C200.718 27.8958 201.039 27.976 201.29 28.285C203.579 31.0895 205.878 33.894 208.109 36.6184ZM197.137 36.378C193.774 36.378 190.536 36.3551 187.298 36.3894C186.669 36.4009 186.417 36.1605 186.257 35.5996C185.582 33.1958 184.907 30.7919 184.163 28.411C183.911 27.5868 184.197 27.4838 184.907 27.5066C187.092 27.5639 189.289 27.5868 191.474 27.5982C191.92 27.5982 192.218 27.6783 192.458 28.1133C194.002 30.8835 195.581 33.6307 197.137 36.378ZM184.014 26.236C183.568 26.236 183.385 26.03 183.213 25.6637C182.561 24.2214 181.909 22.7676 181.211 21.3482C180.902 20.7301 181.142 20.6499 181.68 20.6614C182.95 20.6957 184.232 20.7186 185.502 20.7415C185.776 20.7415 186.028 20.7759 186.234 21.0048C187.778 22.7104 189.323 24.4045 190.982 26.2246C188.522 26.2246 186.268 26.2246 184.014 26.236ZM182.813 28.0218C183.591 30.7576 184.392 33.4934 185.216 36.3322C181.566 36.3322 178.03 36.3208 174.507 36.3437C173.866 36.3437 173.923 35.9316 173.923 35.5195C173.923 33.0584 173.946 30.5973 173.9 28.1362C173.889 27.4609 174.106 27.3006 174.747 27.312C177.115 27.3578 179.483 27.3693 181.852 27.3578C182.367 27.3578 182.653 27.4838 182.813 28.0218ZM191.554 67.5021C191.497 66.9412 191.634 66.781 192.172 66.7924C196.92 66.8268 201.679 66.8497 206.428 66.8497C207.126 66.8497 207.251 67.2274 207.343 67.7654C208.224 72.8364 209.093 77.9074 210.009 82.9784C210.146 83.7682 209.826 83.7796 209.231 83.7796C206.668 83.7567 204.116 83.7682 201.554 83.7682C201.554 83.711 201.554 83.6423 201.554 83.585C199.128 83.585 196.714 83.5393 194.288 83.6079C193.316 83.6423 192.938 83.3904 192.858 82.3717C192.458 77.4152 192.012 72.4587 191.554 67.5021ZM224.093 67.6624C228.074 67.6624 231.942 67.6624 235.82 67.6624C236.289 67.6624 236.575 67.7998 236.701 68.3034C236.884 69.0475 237.159 69.7686 237.445 70.6615C236.232 70.6615 235.122 70.6615 234.012 70.6615C234.001 70.8332 233.99 71.0049 233.978 71.1766C234.905 71.1766 235.832 71.188 236.747 71.1766C237.262 71.1766 237.639 71.1652 237.845 71.852C239.127 75.9614 240.488 80.0479 241.861 84.2261C240.797 84.2261 239.825 84.2375 238.852 84.2261C235.66 84.1803 232.468 84.1116 229.276 84.0773C228.612 84.0773 228.235 83.9857 228.04 83.2073C226.759 77.9646 225.397 72.7448 224.093 67.6624ZM238.932 71.188C242.399 71.3369 245.614 71.5658 248.795 72.1038C249.206 72.1725 249.561 72.3442 249.721 72.7906C251.209 76.7169 252.696 80.6432 254.115 84.3749C250.671 84.3749 247.261 84.3749 243.852 84.3863C243.383 84.3863 243.131 84.2604 242.971 83.7682C241.667 79.613 240.317 75.4806 238.932 71.188ZM259.195 61.8817C257.444 59.3176 255.854 56.9824 254.218 54.5671C255.648 54.9563 259.446 60.3593 259.195 61.8817ZM251.826 53.9147C252.387 53.9719 252.57 54.384 252.822 54.7503C254.469 57.1541 256.037 59.6267 257.787 61.9389C258.623 63.0378 258.497 63.8391 257.707 64.7549C257.353 65.167 256.998 65.5791 256.586 66.0713C253.886 61.8474 251.243 57.715 248.497 53.4224C249.733 53.6056 250.774 53.8002 251.826 53.9147ZM249.893 51.4307C250.202 51.7397 250.488 52.0603 250.797 52.3808C248.348 52.6784 246.838 51.4765 245.385 49.7938C242.685 46.6688 239.802 43.6926 236.827 40.476C238.234 40.4645 239.275 40.5676 240.236 41.5634C243.394 44.9059 246.666 48.1454 249.893 51.4307ZM224.047 29.8876C228.28 32.8638 232.514 35.8514 236.964 38.9764C235.717 38.9993 234.916 38.5644 234.138 37.9691C230.717 35.3707 227.262 32.8066 223.807 30.231C223.887 30.1165 223.967 30.0021 224.047 29.8876ZM222.045 30.4485C225.203 32.921 228.452 35.2791 231.667 37.6715C231.953 37.889 232.216 38.1179 232.697 38.5186C231.598 38.4155 230.786 38.324 229.962 38.2667C229.024 38.1981 228.257 37.8547 227.514 37.2251C224.756 34.9013 221.953 32.6463 219.162 30.3569C218.796 30.0479 218.326 29.8189 218.075 29.258C219.539 29.3382 220.832 29.4984 222.045 30.4485ZM210.489 24.4847C212.686 25.5378 214.883 26.6023 217.079 27.6555C214.482 27.4494 212.606 25.7095 210.329 24.8166C210.386 24.7136 210.432 24.5991 210.489 24.4847ZM202.252 21.829C205.57 23.5918 208.887 25.3432 212.469 27.2434C210.455 27.5181 208.968 27.0831 207.526 26.1216C205.238 24.5991 202.846 23.2141 200.341 21.6802C201.165 21.5085 201.714 21.5428 202.252 21.829ZM197.561 21.5085C200.558 23.1683 203.441 25.0227 206.645 26.9801C203.567 26.9801 200.947 26.9457 198.819 24.7479C197.572 23.4544 195.982 22.4929 194.586 21.0964C195.593 21.2223 196.748 21.062 197.561 21.5085ZM194.243 22.6074C195.684 24.0153 197.423 25.1142 199.174 26.465C197.057 26.465 195.169 26.4764 193.27 26.4535C193.064 26.4535 192.801 26.3734 192.664 26.2246C191.062 24.5076 189.472 22.7676 187.733 20.856C190.261 20.8102 192.412 20.8217 194.243 22.6074ZM188.156 19.4824C186.474 19.7456 185.559 19.4022 183.442 17.6738C184.952 18.2575 186.474 18.8413 188.156 19.4824ZM183.236 19.1619C181.142 19.9517 179.953 19.5053 178.214 17.2617C180.319 17.0098 181.543 18.5781 183.236 19.1619ZM173.923 18.0973C173.82 17.6051 173.809 17.1472 174.621 17.1472C175.708 17.1586 176.68 17.1815 177.355 18.2232C177.584 18.5781 177.996 18.807 178.625 19.3679C176.966 19.3679 175.754 19.3565 174.552 19.3679C173.443 19.3908 174.015 18.5552 173.923 18.0973ZM174.221 20.7644C175.182 19.986 177.264 20.6042 178.854 20.6042C179.232 20.6042 179.541 20.6499 179.735 21.0735C180.49 22.7562 181.28 24.4274 182.104 26.1788C179.506 26.1788 177.046 26.1674 174.598 26.1903C174.049 26.1903 173.866 25.9613 173.912 25.4576C173.912 25.4119 173.912 25.3661 173.912 25.3203C174.015 23.7521 173.225 21.5771 174.221 20.7644ZM172.756 35.3363C172.767 36.1033 172.55 36.378 171.761 36.3551C170.17 36.2979 168.569 36.3437 166.978 36.3437C166.978 36.3551 166.978 36.3666 166.978 36.3894C165.434 36.3894 163.878 36.3665 162.333 36.4009C161.669 36.4238 161.418 36.275 161.624 35.5767C162.356 33.1042 163.088 30.6202 163.786 28.1362C163.946 27.541 164.267 27.3693 164.85 27.3807C167.173 27.3922 169.495 27.3922 171.818 27.3349C172.516 27.3235 172.767 27.5066 172.756 28.2392C172.71 30.5859 172.71 32.9668 172.756 35.3363ZM172.79 64.4C172.802 65.2471 172.573 65.4875 171.726 65.4646C169.358 65.4074 166.978 65.4417 164.61 65.4417C164.61 65.4531 164.61 65.4531 164.61 65.4646C162.242 65.4646 159.862 65.4302 157.493 65.4875C156.727 65.4989 156.567 65.2471 156.658 64.5603C157.242 60.3135 157.825 56.0781 158.386 51.8199C158.477 51.0873 158.706 50.7553 159.576 50.7553C163.592 50.7782 167.607 50.7439 171.623 50.6637C172.504 50.6523 172.802 50.8583 172.79 51.7855C172.733 55.998 172.733 60.199 172.79 64.4ZM122.506 66.0484C118.65 66.1629 114.795 66.3117 110.882 66.4605C110.985 65.602 111.431 65.0182 111.74 64.3771C113.605 60.5424 115.516 56.7306 117.369 52.8844C117.678 52.2434 118.01 51.9343 118.776 51.9114C122.014 51.797 125.241 51.6138 128.662 51.4421C127.666 54.0291 126.705 56.4902 125.755 58.9627C124.955 61.0346 124.177 63.118 123.364 65.1899C123.215 65.5791 123.158 66.0369 122.506 66.0484ZM122.586 67.4106C120.447 68.1088 118.307 67.4678 116.179 67.4106C118.319 67.4106 120.458 67.4106 122.586 67.4106ZM109.829 65.5447C109.463 66.3231 109.028 66.552 108.205 66.5864C105.333 66.7009 102.461 66.9069 99.3262 67.1015C102.095 62.2709 104.761 57.6235 107.415 52.9646C107.598 52.6441 107.827 52.5525 108.182 52.541C110.87 52.3808 113.548 52.1976 116.408 52.003C116.007 52.8386 115.664 53.5598 115.321 54.2695C113.49 58.0355 111.614 61.7672 109.829 65.5447ZM143.032 49.21C142.917 49.4962 142.894 49.8167 142.437 49.8167C138.57 49.8052 134.714 50.2059 130.664 50.057C132.838 46.1651 134.954 42.4105 137.048 38.6445C137.288 38.2095 137.643 38.1294 138.066 38.1294C141.121 38.1294 144.176 38.1294 147.311 38.1294C145.903 41.7695 144.473 45.4897 143.032 49.21ZM147.963 39.7548C148.501 38.095 149.324 37.6486 150.96 37.7287C153.603 37.8432 156.258 37.7287 158.901 37.6601C159.633 37.6372 159.839 37.8089 159.679 38.5644C158.969 41.9984 158.329 45.4325 157.665 48.878C157.562 49.416 157.276 49.5992 156.727 49.5992C152.619 49.5763 148.512 49.5877 144.233 49.5877C145.469 46.3483 146.865 43.0973 147.963 39.7548ZM129.52 49.6335C129.302 50.0227 129.039 50.2631 128.57 50.2631C125.355 50.2516 122.14 50.2631 118.982 50.2631C120.973 47.4586 123.273 44.5167 125.206 41.3688C126.533 39.1939 128.124 38.3011 130.629 38.5186C132.3 38.6674 133.982 38.2095 135.847 38.3354C133.661 42.193 131.579 45.9133 129.52 49.6335ZM124.874 67.319C129.016 67.2045 133.146 67.1015 137.288 67.0214C137.631 67.0099 138.364 66.678 138.181 67.5365C138.078 68.0516 138.272 68.8643 137.185 68.7384C134.977 68.4866 132.746 68.3378 130.526 68.189C128.307 68.0401 126.087 67.96 123.776 67.8456C124.028 67.1473 124.508 67.3304 124.874 67.319ZM137.94 65.7393C133.478 65.7164 129.016 65.7279 124.497 65.7279C125.584 62.8547 126.739 59.8213 127.895 56.7764C128.41 55.4256 129.062 54.1093 129.44 52.7127C129.748 51.5795 130.343 51.362 131.385 51.3734C135.023 51.4192 138.661 51.3963 142.322 51.3963C141.155 55.8377 139.943 60.4394 138.73 65.0296C138.638 65.4303 138.501 65.7393 137.94 65.7393ZM142.769 54.5671C143.73 51.0186 143.741 51.0186 147.425 50.9499C150.343 50.9041 153.26 50.9041 156.178 50.8125C157.036 50.7896 157.299 50.9842 157.185 51.8542C156.59 56.0896 156.04 60.3364 155.457 64.5832C155.4 64.9953 155.423 65.4989 154.713 65.4989C149.793 65.476 144.874 65.4875 139.885 65.4875C140.824 61.9275 141.785 58.2416 142.769 54.5671ZM171.715 49.5534C169.713 49.519 167.71 49.5419 165.697 49.5419C165.697 49.5534 165.697 49.5534 165.697 49.5648C163.695 49.5648 161.692 49.5305 159.679 49.5763C158.958 49.5877 158.718 49.4275 158.878 48.672C159.587 45.2493 160.297 41.8267 160.926 38.3927C161.052 37.6944 161.303 37.5112 161.967 37.5112C165.251 37.5227 168.523 37.5112 171.806 37.4655C172.504 37.454 172.756 37.6257 172.745 38.3698C172.71 41.7924 172.71 45.2036 172.756 48.6262C172.779 49.4847 172.413 49.5648 171.715 49.5534ZM162.47 28.3766C161.738 30.7576 161.097 33.1729 160.388 35.5653C160.274 35.9545 160.251 36.4123 159.564 36.4009C156.258 36.3551 152.94 36.378 149.507 36.378C151.063 33.6422 152.608 30.9293 154.13 28.2049C154.347 27.8043 154.576 27.5982 155.068 27.5982C157.345 27.5982 159.622 27.5753 161.898 27.5066C162.665 27.4838 162.676 27.7241 162.47 28.3766ZM148.146 36.2406C147.997 36.5039 147.78 36.6184 147.482 36.6184C144.496 36.6184 141.51 36.6184 138.512 36.6184C140.743 33.9169 143.055 31.1239 145.343 28.3194C145.652 27.9416 146.006 27.9073 146.43 27.9073C148.523 27.9073 150.617 27.9073 152.906 27.9073C151.327 30.666 149.736 33.4476 148.146 36.2406ZM139.245 33.8139C136.533 37.1335 136.533 37.122 132.231 37.2136C131.098 37.2365 129.954 37.3166 128.787 37.3739C129.954 36.1376 131.087 34.9128 132.254 33.7223C133.272 32.6806 134.474 31.7763 135.355 30.6431C136.911 28.6284 138.936 28.0447 141.327 28.1706C142.094 28.2049 142.86 28.182 143.833 28.182C142.254 30.1051 140.755 31.9595 139.245 33.8139ZM126.877 37.2251C126.579 37.5456 126.225 37.5227 125.87 37.5456C124.108 37.6715 122.335 37.7974 120.195 37.9348C122.575 35.9659 124.691 34.2031 126.819 32.4517C127.025 32.28 127.266 32.1312 127.46 31.9366C129.703 29.7045 132.151 28.0103 134.863 28.5712C132.38 31.2612 129.623 34.2374 126.877 37.2251ZM125.584 38.7704C123.055 42.3418 120.63 45.6271 118.376 49.0268C117.472 50.4005 116.454 50.9728 114.829 50.9385C112.884 50.8927 110.939 51.1102 108.651 51.2246C111.992 47.2411 115.081 43.5323 118.181 39.835C118.387 39.5831 118.582 39.3542 118.948 39.3313C121.076 39.1596 123.181 38.9764 125.584 38.7704ZM110.035 47.8135C108.067 50.6408 105.71 52.1518 102.232 51.7855C101.9 51.7512 101.546 51.8542 100.962 51.9229C102.804 49.9197 104.486 48.0653 106.179 46.2338C107.69 44.5854 109.257 42.9943 110.733 41.3116C111.523 40.4073 112.346 39.8121 113.605 39.835C114.589 39.8579 115.573 39.6404 116.843 39.503C114.429 42.4105 112.015 44.9632 110.035 47.8135ZM101.065 53.1019C102.656 53.0447 104.246 52.8844 106.145 52.7356C103.823 56.7649 101.66 60.531 99.4864 64.297C97.7931 67.2274 97.7931 67.216 94.3721 67.3648C93.1937 67.4106 92.0038 67.525 90.8025 67.6052C90.6766 67.1244 91.0542 66.8611 91.2487 66.552C93.8573 62.4426 96.5116 58.3561 99.0974 54.2352C99.5893 53.4453 100.161 53.1363 101.065 53.1019ZM94.8984 74.7595C93.6742 78.0104 92.5072 81.1125 91.3516 84.2032C91.18 84.6725 90.9169 84.9014 90.3562 84.9129C87.9421 84.9816 85.528 85.1075 82.9194 85.2334C84.1551 82.2915 85.345 79.4642 86.5349 76.6482C86.7179 76.2132 87.1527 76.1903 87.576 76.1102C89.9444 75.6867 92.3013 75.2403 94.8984 74.7595ZM96.0997 75.0571C96.2142 74.7595 96.3629 74.5191 96.7519 74.4733C100.161 74.0154 103.571 73.5347 107.152 73.0424C105.951 76.797 104.818 80.3227 103.697 83.8598C103.594 84.1917 103.422 84.4207 103.033 84.4207C99.5436 84.4207 96.054 84.4207 92.553 84.4207C93.6971 81.3987 94.8984 78.2279 96.0997 75.0571ZM108.285 73.5461C108.433 73.0882 108.685 72.9051 109.166 72.8707C112.93 72.596 116.705 72.3327 120.47 72.0122C121.351 71.9321 121.431 72.2755 121.248 72.9852C120.367 76.362 119.497 79.7503 118.639 83.1272C118.513 83.6194 118.479 84.0773 117.758 84.0658C113.479 84.0429 109.2 84.0544 104.898 84.0544C105.985 80.689 107.141 77.1175 108.285 73.5461ZM122.621 72.4701C122.758 71.9321 123.067 71.8291 123.502 71.8176C127.929 71.7032 132.357 71.5658 136.785 71.6917C137.334 71.7032 137.471 71.8405 137.368 72.4129C136.728 75.95 136.121 79.4985 135.503 83.0356C135.412 83.5621 135.172 83.8025 134.6 83.8025C129.668 83.7796 124.749 83.7911 119.737 83.7911C120.676 80.1052 121.671 76.2934 122.621 72.4701ZM136.716 82.8181C137.38 79.4184 137.975 76.0072 138.524 72.596C138.638 71.8749 138.913 71.726 139.565 71.7146C144.325 71.6574 149.05 72.161 153.786 72.3671C154.324 72.39 154.725 72.4701 154.645 73.237C154.336 76.2361 154.05 79.2352 153.855 82.2343C153.775 83.3447 153.363 83.6537 152.276 83.6079C149.908 83.5164 147.528 83.5736 145.16 83.5736C145.16 83.6308 145.16 83.6881 145.16 83.7568C142.654 83.7568 140.137 83.7338 137.631 83.7682C136.899 83.7796 136.533 83.7453 136.716 82.8181ZM154.633 70.7302C153.924 71.2682 152.654 70.5699 151.636 70.4325C147.848 69.9403 144.05 69.4825 140.263 69.0017C139.817 68.9445 139.142 69.1505 139.348 68.1775C139.233 67.2961 139.634 66.9183 140.663 66.9183C145.183 66.9183 149.691 66.8497 154.21 66.781C154.953 66.7695 155.285 66.884 155.091 67.7311C154.862 68.7499 155.365 70.1693 154.633 70.7302ZM154.988 82.509C155.285 79.4184 155.571 76.3392 155.8 73.2485C155.869 72.2755 156.498 72.5731 156.967 72.6304C159.633 72.928 162.299 73.2714 164.965 73.5919C165.468 73.6491 165.96 73.6835 166.463 73.7407C166.646 73.6377 166.841 73.5461 167.024 73.4431C163.683 72.7677 160.342 72.0923 157.001 71.4399C156.315 71.3025 155.972 71.0507 156.075 70.2837C156.223 69.2879 156.304 68.292 156.349 67.2846C156.372 66.6436 156.773 66.7009 157.185 66.7009C162.116 66.6665 167.035 66.6436 171.967 66.5864C172.665 66.5749 172.79 66.8726 172.79 67.4792C172.779 72.5502 172.767 77.6098 172.802 82.6807C172.802 83.4477 172.516 83.5622 171.852 83.5622C166.566 83.5507 161.269 83.5393 155.983 83.5965C155.056 83.6079 154.908 83.2989 154.988 82.509ZM172.733 25.3203C172.767 25.9613 172.55 26.2017 171.887 26.2017C169.793 26.1788 167.699 26.2131 165.605 26.2246C165.296 26.2246 164.987 26.2246 164.518 26.2246C165.342 24.4274 166.109 22.7562 166.887 21.0849C167.024 20.7759 167.241 20.5698 167.63 20.6042C167.813 20.6271 167.996 20.5927 168.18 20.5927C169.655 20.6614 171.646 19.8487 172.481 20.8102C173.351 21.8175 172.653 23.7864 172.733 25.3203ZM172.024 17.1357C172.951 17.2731 172.71 17.7882 172.71 18.2804C172.71 18.7727 172.951 19.4251 172.001 19.3908C170.822 19.345 169.633 19.3793 168.202 19.3793C169.347 18.0629 170.193 16.861 172.024 17.1357ZM168.225 17.1815C167.276 19.2534 166.578 19.5739 163.512 19.2763C165.045 18.4979 166.303 17.1243 168.225 17.1815ZM165.628 20.8674C164.884 22.4929 164.095 24.1756 163.317 25.8812C163.18 26.1788 162.962 26.236 162.665 26.236C160.411 26.2246 158.146 26.236 155.651 26.236C156.487 25.3088 157.276 24.6449 157.802 23.8207C159.644 20.8903 162.276 20.1005 165.628 20.8674ZM163.054 17.6966C161.75 18.601 160.502 19.8601 158.306 19.551C160.079 18.8528 161.567 18.2804 163.054 17.6966ZM154.519 21.2452C155.583 20.6042 157.23 20.9247 158.946 20.7759C157.173 22.7333 155.594 24.4732 154.015 26.2131C153.775 26.4879 153.466 26.4879 153.146 26.4879C151.304 26.4879 149.45 26.4879 147.517 26.4879C149.816 24.7136 152.025 22.7447 154.519 21.2452ZM152.139 21.0735C151.807 21.7832 151.178 22.0465 150.697 22.4471C149.633 23.3056 148.398 23.9924 147.494 24.9769C145.48 27.1518 142.906 26.8542 140.297 26.7969C143.215 24.9998 146.098 23.1339 149.084 21.4741C149.885 21.0391 151.029 21.1994 152.139 21.0735ZM145.984 21.4054C146.041 21.5199 146.109 21.6344 146.167 21.7489C143.249 23.5346 140.343 25.3546 137.38 27.0717C136.533 27.5639 135.48 27.2892 134.485 27.2663C138.352 25.3203 141.888 22.7791 145.984 21.4054ZM135.137 24.9998C135.194 25.1142 135.24 25.2173 135.297 25.3317C133.444 26.1903 131.796 27.4838 129.634 27.6669C131.465 26.774 133.307 25.8926 135.137 24.9998ZM128.581 29.4183C127.117 30.6431 125.641 31.8565 124.177 33.0813C122.918 34.123 121.545 35.0616 120.424 36.2521C118.662 38.1065 116.522 38.5872 113.925 38.4499C117.872 35.4966 121.637 32.6578 125.447 29.8647C126.327 29.2122 127.449 29.4068 128.581 29.4183ZM122.632 29.8418C122.724 29.9677 122.815 30.1051 122.907 30.231C119.165 33.0241 115.447 35.84 111.671 38.5987C111.191 38.9421 110.493 38.9879 109.795 38.9421C114.074 35.9087 118.353 32.8752 122.632 29.8418ZM106.82 41.22C107.587 40.4416 108.628 40.5332 109.841 40.4188C107.472 43.0058 105.241 45.4554 102.999 47.8936C102.289 48.672 101.569 49.4275 100.871 50.2059C98.9944 52.3235 98.9944 52.335 95.7565 52.5181C99.555 48.6376 103.182 44.9288 106.82 41.22ZM96.5688 53.6628C97.015 53.6514 97.4613 53.6056 98.0905 53.5598C96.6032 55.9064 95.1959 58.1271 93.7772 60.3364C92.3813 62.5227 90.9398 64.6862 89.5897 66.9069C89.1549 67.6281 88.6286 67.96 87.8277 67.9028C86.8323 67.8455 85.8713 68.3034 84.7043 68.0974C85.8141 66.449 86.8781 64.8808 87.9421 63.3126C89.6583 60.7943 91.4775 58.3332 93.0564 55.7233C93.9373 54.3153 95.0243 53.7086 96.5688 53.6628ZM91.1686 55.1509C91.4546 54.7388 91.8665 54.6244 92.4843 54.5442C89.3609 59.1345 86.306 63.6216 83.2512 68.1203C82.8966 68.6354 82.416 68.7499 81.741 68.6468C84.9217 64.1139 88.0451 59.6381 91.1686 55.1509ZM79.7845 78.3881C79.979 77.9417 80.2765 77.77 80.6884 77.6784C82.13 77.3465 83.583 77.0031 85.2191 76.6253C84.0178 79.487 82.8966 82.1542 81.7753 84.8099C81.5923 85.2563 81.249 85.3822 80.8028 85.4165C79.4413 85.4967 78.0798 85.5997 76.4666 85.7142C77.6336 83.1615 78.7319 80.7806 79.7845 78.3881ZM78.4688 78.3309C77.359 80.7805 76.3064 83.1157 75.2424 85.4394C74.8648 86.2751 74.0982 85.9546 73.2974 86.0461C74.3957 83.6881 75.4254 81.5131 76.4094 79.3268C76.7984 78.4339 77.5192 78.3996 78.4688 78.3309ZM79.2125 174.084C78.2857 174.405 78.4917 173.489 78.2972 173.146C77.6908 172.081 77.0386 170.994 76.7526 169.826C76.4551 168.59 75.6428 167.685 75.1737 166.575C74.6131 165.236 73.9495 163.942 73.3202 162.592C74.533 162.408 75.1852 162.821 75.6543 163.931C76.8785 166.838 78.2285 169.689 79.5443 172.562C79.8189 173.169 80.1392 173.752 79.2125 174.084ZM82.9881 169.517C82.4046 170.57 81.9355 171.692 80.8943 172.596C79.4184 169.345 77.9997 166.197 76.581 163.049C77.073 162.775 77.4734 163.072 77.8624 163.015C80.757 162.614 82.3588 163.874 83.0682 166.701C83.3084 167.731 83.5144 168.555 82.9881 169.517ZM84.0407 165.98C83.6174 164.995 83.297 164.228 82.9423 163.393C84.6585 163.37 84.6585 163.37 84.0407 165.98ZM85.8942 161.321C85.5052 158.185 85.6653 155.037 85.5738 151.889C85.5624 151.454 85.7225 150.984 85.345 150.504C84.956 150.824 85.1047 151.248 85.1161 151.58C85.1619 154.728 85.0246 157.875 84.8072 161.023C84.7729 161.493 85.0361 162.283 84.1208 162.191C83.4 162.122 82.5304 162.5 82.2444 161.229C81.0202 155.918 79.693 150.63 78.3773 145.341C78.2056 144.654 78.3086 144.448 79.0294 144.483C81.4435 144.574 83.8576 144.643 86.2832 144.689C86.7866 144.7 86.9468 144.86 87.0612 145.375C88.2739 151.065 89.5325 156.731 90.8025 162.534C89.3036 162.443 87.8964 162.328 86.5005 162.283C85.7111 162.26 85.9399 161.722 85.8942 161.321ZM114.44 144.986C115.298 144.952 115.641 145.25 115.756 146.074C116.511 151.534 117.277 157.005 118.101 162.454C118.216 163.198 118.033 163.301 117.38 163.278C113.365 163.187 109.349 163.095 105.321 163.049C104.601 163.038 104.406 162.729 104.292 162.099C103.319 156.719 102.324 151.351 101.306 145.982C101.145 145.124 101.374 144.895 102.244 144.929C104.246 144.998 106.26 144.952 108.273 144.952C108.273 144.975 108.273 144.986 108.273 145.009C110.333 145.009 112.381 145.055 114.44 144.986ZM132.185 145.192C133.112 145.158 133.444 145.456 133.524 146.348C133.89 150.343 134.302 154.338 134.702 158.322C134.84 159.73 134.92 161.138 135.137 162.534C135.252 163.301 135.149 163.587 134.291 163.565C129.588 163.462 124.897 163.393 120.195 163.347C119.52 163.336 119.406 163.095 119.325 162.477C118.559 157.063 117.758 151.66 116.923 146.257C116.786 145.364 116.991 145.066 117.941 145.101C120.355 145.169 122.781 145.124 125.195 145.124C125.195 145.146 125.195 145.169 125.195 145.192C127.529 145.215 129.863 145.272 132.185 145.192ZM151.681 145.227C152.528 145.204 152.757 145.467 152.791 146.291C152.917 149.622 153.1 152.953 153.294 156.273C153.317 156.777 153.192 157.131 152.803 157.463C151.132 158.883 149.942 160.646 149.347 162.763C149.141 163.507 148.775 163.645 148.089 163.633C144.531 163.587 140.972 163.576 137.403 163.587C136.67 163.587 136.396 163.416 136.316 162.614C135.835 157.395 135.275 152.175 134.737 146.955C134.554 145.204 134.554 145.204 136.327 145.204C138.787 145.204 141.258 145.204 143.718 145.204C143.718 145.215 143.718 145.215 143.718 145.227C146.384 145.25 149.038 145.284 151.681 145.227ZM172.813 227.083C172.836 227.77 172.665 228.137 171.909 228.011C171.864 227.999 171.818 228.011 171.772 228.011C170.239 227.896 168.202 228.606 167.276 227.656C165.971 226.317 165.468 224.199 164.587 222.356C167.138 222.356 169.507 222.379 171.875 222.344C172.584 222.333 172.848 222.528 172.813 223.26C172.756 224.531 172.767 225.813 172.813 227.083ZM91.466 182.372C90.8597 181.445 91.2487 181.113 92.1525 181.147C93.9259 181.204 95.6993 181.365 97.4727 181.445C97.8617 181.468 98.0333 181.662 98.2049 181.937C100.848 186.539 103.491 191.152 106.202 195.891C104.177 195.73 102.404 195.547 100.642 195.456C100.013 195.421 99.658 195.169 99.3376 194.666C96.729 190.556 94.109 186.458 91.466 182.372ZM98.1821 195.101C97.8388 195.101 97.7473 195.101 97.6672 195.101C95.0243 195.227 93.4911 193.784 92.2669 191.598C91.18 189.664 89.7727 187.901 88.5256 186.058C87.9536 185.211 88.9146 182.807 89.8986 182.589C90.2075 182.521 90.2762 182.738 90.402 182.933C92.9648 186.939 95.5391 190.957 98.1821 195.101ZM134.428 164.744C135.16 164.732 135.423 164.961 135.561 165.717C136.396 170.696 137.288 175.664 138.192 180.632C138.329 181.399 138.135 181.559 137.391 181.548C133.284 181.456 129.188 181.376 125.08 181.353C124.177 181.353 123.879 181.021 123.673 180.151C122.506 175.343 121.27 170.547 120 165.762C119.726 164.732 119.909 164.435 121.03 164.492C123.215 164.595 125.401 164.526 127.597 164.526C127.597 164.606 127.597 164.675 127.597 164.755C129.863 164.755 132.151 164.778 134.428 164.744ZM108.754 181.983C109.143 182.006 109.394 182.051 109.6 182.475C111.843 187.122 114.12 191.747 116.499 196.6C113.559 196.406 110.859 196.211 108.147 196.039C107.77 196.017 107.587 195.822 107.415 195.536C104.772 190.934 102.141 186.321 99.3834 181.525C102.656 181.696 105.699 181.845 108.754 181.983ZM99.3147 180.334C98.4566 180.334 98.3765 179.625 98.3193 179.121C98.2393 178.491 98.9028 178.755 99.2346 178.674C101.832 178.125 104.486 178.159 107.118 177.965C107.781 177.919 108.124 178.102 108.262 178.778C108.388 179.384 108.616 179.979 108.719 180.334C105.585 180.323 102.45 180.323 99.3147 180.334ZM110.905 182.383C114.04 182.383 117.152 182.521 120.252 182.337C122.563 182.2 123.513 183.15 124.199 185.268C125.492 189.217 127.14 193.052 128.547 196.726C125.252 196.726 122.026 196.726 118.788 196.726C118.273 196.726 117.85 196.669 117.564 196.097C115.355 191.472 113.101 186.882 110.905 182.383ZM128.501 198.283C128.925 198.283 129.268 198.363 129.508 198.81C131.59 202.576 133.696 206.33 135.721 209.947C133.032 209.947 130.366 209.936 127.7 209.959C127.186 209.959 126.991 209.604 126.762 209.272C124.131 205.563 121.499 201.843 118.971 198.283C122.14 198.283 125.321 198.283 128.501 198.283ZM130.721 198.489C134.005 198.363 137.082 198.604 140.171 198.695C142.849 198.775 142.849 198.764 143.821 201.248C145.022 204.327 146.224 207.406 147.391 210.417C144.222 210.417 141.167 210.417 138.112 210.417C137.757 210.417 137.391 210.417 137.174 210.016C135.046 206.204 132.918 202.415 130.721 198.489ZM144.256 198.936C147.986 198.936 151.624 198.924 155.262 198.947C157.608 198.958 157.585 198.993 158.008 201.271C158.615 204.487 159.267 207.692 159.873 210.795C156.315 210.795 152.814 210.795 149.301 210.795C148.924 210.795 148.775 210.657 148.638 210.291C147.185 206.49 145.698 202.69 144.256 198.936ZM158.203 194.757C157.688 190.991 157.162 187.214 156.59 183.047C161.04 188.462 165.846 193.017 170.788 197.779C167.596 197.779 164.656 197.791 161.727 197.779C160.731 197.779 159.484 198.077 158.798 197.596C158.077 197.093 158.34 195.742 158.203 194.757ZM157.196 196.291C157.39 197.562 157.001 197.779 155.812 197.734C152.162 197.608 148.512 197.608 144.862 197.619C144.05 197.619 143.672 197.402 143.466 196.577C142.402 192.354 141.327 188.13 140.126 183.94C139.794 182.761 140.217 182.807 141.087 182.818C143.272 182.864 145.469 182.83 147.654 182.83C147.654 182.91 147.654 182.979 147.654 183.059C149.885 183.059 152.127 183.082 154.359 183.047C155.068 183.036 155.423 183.196 155.526 183.974C156.04 188.084 156.578 192.193 157.196 196.291ZM142.277 196.589C142.471 197.287 142.311 197.47 141.602 197.447C137.998 197.322 134.394 197.23 130.79 197.138C130.286 197.127 129.966 197.024 129.76 196.486C128.044 191.941 126.293 187.408 124.566 182.876C124.543 182.807 124.588 182.704 124.566 182.83C129.073 182.83 133.535 182.841 138.009 182.818C138.558 182.818 138.684 183.127 138.798 183.551C139.954 187.901 141.098 192.251 142.277 196.589ZM122.609 180.872C118.639 180.872 114.76 180.861 110.893 180.884C110.333 180.884 110.104 180.655 109.978 180.117C109.818 179.419 109.543 178.743 109.28 177.919C110.401 177.919 111.42 177.919 112.449 177.919C111.74 177.221 110.893 177.541 110.115 177.438C109.589 177.37 109.108 177.484 108.88 176.717C107.587 172.562 106.214 168.441 104.921 164.469C109.246 164.469 113.559 164.48 117.872 164.457C118.547 164.457 118.547 164.904 118.65 165.339C119.966 170.582 121.305 175.813 122.609 180.872ZM107.781 177.324C104.349 177.415 101.18 177.049 98.0333 176.522C97.5299 176.442 97.1752 176.282 96.9922 175.79C95.5048 171.852 94.006 167.914 92.5873 164.171C96.0311 164.171 99.4406 164.171 102.862 164.171C103.331 164.171 103.582 164.286 103.742 164.789C105.058 168.933 106.408 173.077 107.781 177.324ZM97.1867 179.773C97.2324 180.323 96.7862 180.117 96.5231 180.117C95.848 180.128 95.173 180.117 94.1204 180.117C95.0815 179.51 95.7222 179.338 96.3743 179.178C96.935 179.064 97.1523 179.304 97.1867 179.773ZM106.385 197.138C106.82 197.173 107.152 197.344 107.438 197.688C110.539 201.442 113.651 205.186 116.923 209.135C115.229 208.94 113.776 208.768 112.335 208.62C111.969 208.585 111.774 208.345 111.568 208.116C108.136 204.407 104.715 200.71 101.019 196.715C103.045 196.875 104.715 197.012 106.385 197.138ZM108.697 197.276C111.557 197.482 114.005 197.653 116.465 197.825C116.82 197.848 117.174 197.837 117.438 198.203C120.103 201.969 122.792 205.735 125.63 209.741C123.273 209.593 121.202 209.455 119.131 209.329C118.845 209.306 118.605 209.192 118.422 208.963C115.252 205.163 112.083 201.351 108.697 197.276ZM126.465 211.092C126.648 211.104 126.854 211.298 127.014 211.447C129.806 214.137 132.597 216.838 135.378 219.54C135.503 219.654 135.572 219.838 135.698 220.044C135.355 219.998 135.069 219.906 134.817 219.941C131.876 220.376 129.863 218.75 127.838 216.964C125.492 214.893 123.032 212.958 120.447 210.829C122.609 210.646 124.531 211.023 126.465 211.092ZM133.97 216.529C132.506 214.629 130.812 212.901 129.417 211.321C131.362 211.195 133.867 211.573 136.384 211.63C136.636 211.63 136.796 211.745 136.956 211.939C139.233 214.709 141.51 217.468 143.924 220.41C143.547 220.444 143.455 220.456 143.363 220.456C139.496 220.914 136.396 219.666 133.97 216.529ZM138.581 211.916C141.59 211.916 144.576 211.916 147.562 211.905C147.951 211.905 148.123 212.122 148.283 212.409C149.851 215.167 151.43 217.914 152.986 220.65C150.617 220.65 148.329 220.662 146.041 220.639C145.846 220.639 145.595 220.501 145.469 220.353C143.146 217.525 140.835 214.675 138.581 211.916ZM149.576 212.168C152.963 212.168 156.201 212.18 159.438 212.157C159.988 212.157 160.274 212.317 160.411 212.832C161.12 215.327 161.818 217.811 162.562 220.295C162.768 220.982 162.608 221.188 161.898 221.154C159.622 221.062 157.333 221.005 155.056 220.948C154.702 220.936 154.473 220.833 154.29 220.524C152.722 217.72 151.132 214.927 149.576 212.168ZM161.486 212.202C165.09 212.202 168.557 212.214 172.024 212.191C172.619 212.191 172.813 212.386 172.813 212.981C172.79 215.499 172.79 218.006 172.813 220.524C172.813 221.062 172.642 221.234 172.104 221.223C169.633 221.188 167.173 221.177 164.701 221.177C164.267 221.177 164.049 221.051 163.923 220.627C163.134 217.834 162.322 215.053 161.486 212.202ZM171.978 211.081C168.649 211.035 165.319 211.023 161.99 211.035C161.28 211.035 161.109 210.749 160.983 210.085C160.354 206.639 159.667 203.205 158.946 199.794C158.786 199.05 158.992 198.958 159.644 198.958C161.601 198.993 163.569 198.97 165.525 198.97C165.525 198.981 165.525 198.981 165.525 198.993C167.482 198.993 169.45 199.004 171.406 198.981C172.367 198.97 172.813 199.382 172.802 200.366C172.779 203.652 172.779 206.937 172.813 210.222C172.813 210.886 172.642 211.092 171.978 211.081ZM172.79 162.008C169.038 155.38 163.088 152.301 154.484 156.113C154.301 152.782 154.118 149.473 153.912 146.154C153.867 145.513 154.038 145.284 154.725 145.284C160.48 145.307 166.223 145.307 171.978 145.295C172.527 145.295 172.813 145.398 172.802 146.039C172.779 151.362 172.79 156.685 172.79 162.008ZM153.97 179.487C154.347 180.048 154.736 180.62 155.102 181.193C155.171 181.296 155.171 181.433 155.24 181.685C150.194 181.685 145.263 181.674 140.332 181.696C139.645 181.696 139.485 181.353 139.393 180.804C138.524 175.733 137.666 170.662 136.75 165.591C136.613 164.847 136.819 164.755 137.471 164.767C141.029 164.835 144.599 164.881 148.157 164.915C148.684 164.915 149.004 164.961 148.981 165.636C148.821 170.902 151.132 175.286 153.97 179.487ZM103.125 162.134C103.251 162.786 103.01 162.912 102.427 162.889C99.2346 162.775 96.0311 162.637 92.839 162.614C91.855 162.603 91.8894 161.962 91.7635 161.401C90.5622 155.895 89.3837 150.378 88.2053 144.94C91.9351 144.94 95.5849 144.963 99.2346 144.929C99.8982 144.918 99.9783 145.307 100.07 145.753C101.088 151.202 102.095 156.674 103.125 162.134ZM86.4777 165.888C86.02 163.576 86.0315 163.576 88.3311 163.622C91.0656 163.668 91.0656 163.668 92.0381 166.197C93.2623 169.403 94.4865 172.596 95.768 175.962C90.2418 174.645 87.4845 171.051 86.4777 165.888ZM92.1068 194.162C90.0702 192.411 88.9261 189.927 87.29 187.843C87.004 187.477 87.0497 187.443 87.4387 186.596C89.1206 189.045 90.7796 191.472 92.4271 193.887C92.3241 193.99 92.2212 194.082 92.1068 194.162ZM93.5483 195.753C94.681 196.383 95.4018 197.459 96.1341 198.501C95.2645 197.596 94.4064 196.68 93.5483 195.753ZM105.745 206.353C102.575 202.976 99.2804 199.691 95.8824 196.211C97.8617 196.245 99.3262 196.497 100.608 198.043C103.273 201.225 106.214 204.167 109.028 207.223C109.291 207.509 109.692 207.727 109.726 208.173C108.067 208.311 106.877 207.555 105.745 206.353ZM109.921 209.57C110.916 209.547 111.717 209.947 112.506 210.543C115.939 213.153 119.406 215.705 122.918 218.327C121.968 218.372 112.095 211.664 109.921 209.57ZM124.749 218.235C121.659 215.831 118.49 213.53 115.344 211.184C114.955 210.898 114.577 210.6 114.143 210.257C116.671 209.982 118.639 210.646 120.458 212.317C123.055 214.721 125.87 216.861 128.799 219.288C127.163 219.311 125.916 219.151 124.749 218.235ZM134.943 223.443C133.169 222.596 131.396 221.761 129.623 220.914C131.785 221.017 133.375 222.39 135.229 223.192C136.487 223.844 137.746 224.485 139.004 225.137C137.528 224.828 136.19 224.233 134.943 223.443ZM144.656 226.809C141.258 225.034 137.872 223.226 134.153 221.257C136.041 221.177 137.426 221.268 138.764 222.173C141.167 223.787 143.695 225.229 146.281 226.82C145.629 227.072 145.103 227.038 144.656 226.809ZM148.054 226.568C145.846 225.046 143.489 223.741 141.213 222.333C140.915 222.15 140.538 222.058 140.354 221.589C140.515 221.589 140.56 221.589 140.606 221.589C142.151 221.692 143.97 221.314 145.183 222.001C147.688 223.42 149.874 225.424 152.127 227.312C150.72 227.255 149.37 227.461 148.054 226.568ZM152.082 225.63C150.755 224.348 149.164 223.34 147.505 222.07C149.668 222.07 151.624 222.07 153.581 222.07C153.878 222.07 154.05 222.299 154.233 222.505C155.743 224.187 157.265 225.87 158.901 227.69C156.178 227.953 153.981 227.45 152.082 225.63ZM158.34 229.052C160.594 228.675 161.795 229.98 163.054 230.884C161.601 230.323 160.148 229.751 158.34 229.052ZM161.029 227.793C160.651 227.793 160.468 227.541 160.251 227.312C158.786 225.698 157.322 224.084 155.709 222.31C158.18 222.31 160.445 222.322 162.711 222.299C163.088 222.299 163.294 222.459 163.443 222.779C164.187 224.416 164.942 226.053 165.743 227.793C164.084 227.793 162.562 227.782 161.029 227.793ZM163.477 229.327C166.612 229.007 166.852 229.11 168.363 231.319C166.36 231.502 165.113 229.957 163.477 229.327ZM172.562 231.307C171.761 231.433 170.822 231.674 170.09 231.067C169.484 230.563 168.98 229.934 168.283 229.201C169.587 229.201 170.662 229.224 171.738 229.19C172.39 229.167 172.962 229.201 172.79 230.094C172.722 230.518 173.054 231.227 172.562 231.307ZM174.632 231.41C173.992 231.296 173.877 231.033 173.969 230.54C174.06 230.06 173.557 229.235 174.587 229.213C175.788 229.178 177.001 229.201 178.408 229.201C177.321 230.54 176.452 231.731 174.632 231.41ZM183.808 170.467C183.248 168.418 182.241 167.479 180.147 167.205C179.77 167.159 179.381 167.125 178.854 166.919C182.882 166.815 184.163 164.423 184.174 160.897C184.712 162.328 184.563 163.919 185.513 165.167C186.508 166.472 188.042 166.552 189.586 166.987C186.554 167.125 184.735 168.498 184.575 171.577L184.094 175.206C184.094 174.348 184.094 173.489 184.094 172.642C184.06 171.886 184.003 171.177 183.808 170.467ZM181.509 191.781C184.049 189.16 186.577 186.527 188.911 183.723C189.163 183.414 189.38 182.91 189.861 183.127C190.353 183.345 190.067 183.86 190.021 184.215C189.483 188.324 188.923 192.434 188.373 196.543C188.27 197.344 188.064 197.802 187.058 197.791C183.225 197.722 179.392 197.756 175.994 197.756C177.687 195.914 179.552 193.807 181.509 191.781ZM199.574 209.936C200.947 206.433 202.286 202.919 203.636 199.416C203.75 199.119 203.773 198.718 204.311 198.718C208.155 198.741 212.011 198.729 215.901 198.729C213.864 202.37 211.759 206.124 209.677 209.879C209.437 210.302 209.105 210.405 208.67 210.417C205.798 210.508 202.938 210.6 200.066 210.726C199.368 210.749 199.345 210.531 199.574 209.936ZM198.27 209.947C198.053 210.52 197.755 210.772 197.08 210.772C193.98 210.772 190.868 210.806 187.767 210.886C186.989 210.909 186.886 210.669 187.035 209.959C187.733 206.571 188.385 203.171 189.014 199.771C189.14 199.084 189.506 198.936 190.147 198.947C192.057 198.981 193.98 198.958 195.902 198.958C195.902 198.878 195.902 198.81 195.902 198.729C197.778 198.729 199.643 198.752 201.519 198.718C202.252 198.707 202.606 198.718 202.229 199.657C200.856 203.068 199.574 206.513 198.27 209.947ZM217.217 198.821C217.446 198.398 217.789 198.26 218.224 198.26C221.404 198.26 224.585 198.26 227.708 198.26C225.763 201.03 223.521 203.949 221.599 207.063C220.271 209.203 218.761 210.428 216.153 210.039C215.317 209.913 214.425 210.153 213.567 210.188C212.743 210.222 211.931 210.199 210.878 210.199C213.041 206.342 215.134 202.587 217.217 198.821ZM218.052 197.093C219.917 192.273 221.702 187.66 223.452 183.036C223.624 182.566 223.864 182.383 224.345 182.383C228.155 182.395 231.976 182.383 235.809 182.383C235.774 182.83 235.363 183.333 235.088 183.894C233.177 187.809 231.232 191.713 229.344 195.639C229.035 196.28 228.704 196.589 227.937 196.612C224.711 196.738 221.473 196.921 218.052 197.093ZM209.299 179.819C213.796 180.128 218.281 180.437 222.777 180.746C222.8 180.746 222.811 180.804 222.846 180.861C222.674 181.433 222.182 181.216 221.827 181.227C217.686 181.342 213.544 181.445 209.391 181.525C209.059 181.536 208.384 181.788 208.544 181.101C208.647 180.666 208.27 179.751 209.299 179.819ZM224.127 181.101C224.127 181.044 224.127 180.987 224.127 180.93C226.084 180.93 228.052 180.93 230.008 180.93C230.008 180.987 230.008 181.044 230.008 181.101C228.052 181.101 226.084 181.101 224.127 181.101ZM234.504 187.878C235.305 186.252 236.14 184.638 236.896 182.99C237.216 182.303 237.559 181.983 238.383 181.96C241.3 181.88 244.207 181.685 247.364 181.525C245.168 185.348 242.834 188.885 241.037 192.686C239.71 195.501 237.834 196.463 234.928 196.28C233.44 196.188 231.942 196.417 230.283 196.509C231.724 193.555 233.109 190.717 234.504 187.878ZM239.539 175.538C240.751 171.761 241.884 168.235 243.005 164.698C243.165 164.194 243.497 164.125 243.943 164.125C247.307 164.137 250.671 164.125 254.149 164.125C253.005 167.147 251.815 170.318 250.614 173.489C250.522 173.729 250.431 174.004 250.087 174.05C246.632 174.531 243.177 175.023 239.539 175.538ZM239.127 172.997C238.623 174.851 237.902 175.859 235.729 175.904C232.285 175.984 228.852 176.488 225.237 176.591C226.244 172.596 227.228 168.75 228.177 164.881C228.315 164.343 228.681 164.435 229.013 164.435C233.257 164.423 237.491 164.435 241.804 164.435C240.934 167.17 239.916 170.055 239.127 172.997ZM224.093 176.122C223.933 176.763 223.567 176.763 223.097 176.774C218.761 176.82 214.425 176.854 210.089 176.912C209.414 176.923 209.254 176.763 209.391 176.053C210.043 172.562 210.627 169.059 211.21 165.556C211.313 164.973 211.508 164.709 212.171 164.709C217.057 164.732 221.93 164.721 226.999 164.721C226.026 168.464 225.031 172.287 224.093 176.122ZM210.032 165.488C209.391 169.025 208.773 172.573 208.178 176.122C208.087 176.66 207.881 176.912 207.297 176.9C202.961 176.786 198.636 176.66 194.105 176.294C196.016 172.791 197.297 169.322 197.195 165.488C197.183 164.95 197.446 164.915 197.858 164.904C201.691 164.847 205.535 164.801 209.368 164.721C209.963 164.698 210.146 164.847 210.032 165.488ZM209.128 182.761C211.176 182.807 213.235 182.772 215.283 182.772C215.283 182.692 215.283 182.612 215.283 182.521C217.331 182.521 219.391 182.544 221.439 182.509C222.114 182.498 222.342 182.612 222.056 183.333C220.352 187.683 218.67 192.033 217.011 196.406C216.816 196.909 216.587 197.127 216.05 197.138C212.4 197.218 208.762 197.322 205.112 197.447C204.357 197.47 204.334 197.264 204.517 196.589C205.684 192.296 206.805 187.992 207.904 183.688C208.087 182.979 208.407 182.75 209.128 182.761ZM204.54 191.85C204.128 193.43 203.659 194.998 203.27 196.577C203.133 197.115 203.018 197.493 202.343 197.505C198.281 197.539 194.231 197.585 190.17 197.665C189.128 197.688 189.517 196.978 189.575 196.555C189.941 193.67 190.353 190.785 190.753 187.901C190.936 186.596 191.096 185.279 191.291 183.974C191.359 183.494 191.394 183.036 192.149 183.036C197.023 183.07 201.897 183.059 206.851 183.059C206.096 185.897 205.318 188.874 204.54 191.85ZM180.959 199.004C180.959 198.993 180.959 198.993 180.959 198.981C183.007 198.981 185.067 199.004 187.115 198.97C187.813 198.958 187.984 199.176 187.847 199.828C187.138 203.297 186.417 206.765 185.765 210.245C185.639 210.909 185.387 211.035 184.792 211.035C181.463 211.023 178.133 211.035 174.815 211.081C174.163 211.092 173.957 210.898 173.957 210.234C173.992 206.765 173.992 203.308 173.957 199.84C173.957 199.176 174.152 198.981 174.804 198.993C176.852 199.027 178.911 199.004 180.959 199.004ZM173.957 213.004C173.957 212.431 174.129 212.191 174.735 212.191C178.191 212.214 181.657 212.202 185.261 212.202C184.449 215.053 183.648 217.823 182.859 220.605C182.721 221.097 182.39 221.177 181.932 221.177C179.564 221.177 177.195 221.177 174.827 221.223C174.198 221.234 173.946 221.074 173.957 220.387C173.992 217.926 173.98 215.465 173.957 213.004ZM173.957 223.295C173.934 222.596 174.14 222.333 174.873 222.344C177.241 222.379 179.609 222.356 182.172 222.356C181.383 224.073 180.639 225.664 179.907 227.267C179.701 227.736 179.403 227.953 178.866 227.942C177.55 227.931 176.223 227.953 174.907 228.022C174.221 228.056 173.912 227.873 173.946 227.118C174.003 225.847 174.003 224.565 173.957 223.295ZM183.66 222.344C186.051 222.344 188.431 222.344 191.005 222.344C189.392 224.119 187.881 225.79 186.371 227.473C186.131 227.736 185.868 227.805 185.524 227.805C184.071 227.793 182.618 227.805 181.131 227.805C181.108 227.667 181.074 227.61 181.097 227.576C182.001 225.847 182.607 223.981 183.66 222.344ZM184.827 221.039C184.094 221.062 184.014 220.868 184.232 220.181C184.987 217.754 185.662 215.316 186.36 212.878C186.497 212.397 186.691 212.145 187.275 212.157C190.547 212.191 193.808 212.18 197.195 212.18C195.627 214.938 194.06 217.697 192.515 220.467C192.275 220.902 191.954 220.971 191.52 220.971C189.289 220.959 187.058 220.982 184.827 221.039ZM195.112 218.327C195.982 216.724 197 215.202 197.778 213.565C198.384 212.283 199.185 211.79 200.615 211.859C203.121 211.974 205.627 211.893 208.212 211.893C205.97 214.618 203.682 217.388 201.405 220.17C201.107 220.524 200.787 220.65 200.352 220.65C198.213 220.639 196.062 220.65 193.888 220.65C194.025 219.86 194.677 219.139 195.112 218.327ZM203.693 219.322C205.592 216.987 207.526 214.698 209.402 212.34C209.849 211.779 210.295 211.539 210.993 211.516C213.304 211.424 215.615 211.275 217.102 211.195C214.723 213.828 212.011 216.827 209.299 219.838C208.979 220.192 208.567 220.147 208.167 220.181C206.485 220.284 204.803 220.387 203.075 220.49C203.018 219.906 203.43 219.643 203.693 219.322ZM214.482 216.507C216.073 214.938 217.732 213.439 219.31 211.848C219.86 211.287 220.42 211.035 221.198 211.012C222.834 210.943 224.47 210.76 226.107 210.634C226.141 210.714 226.164 210.795 226.198 210.875C222.754 213.702 219.322 216.541 215.878 219.368C215.317 219.826 214.574 219.712 213.91 219.792C213.006 219.906 212.091 219.918 211.107 219.986C212.251 218.807 213.338 217.628 214.482 216.507ZM224.436 209.535C223.464 209.409 222.445 209.673 221.45 209.753C221.267 209.238 221.644 209.032 221.839 208.757C224.173 205.437 226.53 202.141 228.83 198.798C229.379 197.997 229.985 197.665 230.958 197.642C233.189 197.596 235.42 197.436 238.005 197.31C235.397 200.458 232.891 203.285 230.626 206.296C229.024 208.425 227.319 209.925 224.436 209.535ZM236.484 200.939C238.509 198.008 240.946 196.36 244.573 196.738C244.882 196.772 245.202 196.669 245.751 196.6C244.001 198.523 242.387 200.298 240.774 202.072C239.573 203.388 238.2 204.567 237.205 206.021C235.431 208.597 232.994 209.158 230.019 208.849C232.205 206.204 234.562 203.72 236.484 200.939ZM240.545 195.799C241.998 193.269 243.303 191.003 244.607 188.736C245.763 186.733 246.975 184.753 248.074 182.715C248.543 181.834 249.046 181.376 250.133 181.365C252.044 181.342 253.943 181.078 255.854 180.918C256.048 181.376 255.682 181.616 255.511 181.88C252.845 186.058 250.167 190.224 247.502 194.403C247.17 194.918 246.884 195.364 246.163 195.398C244.401 195.49 242.639 195.65 240.545 195.799ZM251.815 173.764C253.039 170.524 254.218 167.399 255.396 164.286C255.522 163.954 255.671 163.668 256.151 163.645C258.645 163.565 261.14 163.439 263.805 163.324C262.581 166.232 261.414 168.979 260.259 171.726C260.098 172.115 259.824 172.299 259.446 172.367C256.952 172.825 254.458 173.283 251.815 173.764ZM263.291 162.076C261.105 162.122 258.92 162.283 256.735 162.408C255.659 162.511 256.117 161.733 256.197 161.332C256.826 158.31 257.501 155.288 258.165 152.278C258.668 150.011 259.206 147.756 259.652 145.49C259.778 144.86 259.984 144.666 260.602 144.654C262.924 144.608 265.258 144.528 267.581 144.448C268.21 144.425 268.599 144.402 268.37 145.295C267.055 150.538 265.785 155.792 264.538 161.058C264.366 161.767 264.091 162.065 263.291 162.076ZM255.007 161.264C254.824 162.145 254.527 162.58 253.463 162.58C250.453 162.58 247.444 162.74 244.435 162.878C243.737 162.912 243.486 162.843 243.646 162.008C244.664 156.696 245.625 151.362 246.575 146.028C246.712 145.238 246.941 144.78 247.925 144.792C251.437 144.86 254.938 144.815 258.52 144.815C257.353 150.332 256.163 155.792 255.007 161.264ZM245.408 145.936C244.39 151.293 243.394 156.662 242.433 162.031C242.296 162.821 241.918 162.981 241.243 162.969C239.241 162.958 237.227 162.958 235.225 162.958C235.225 163.061 235.225 163.152 235.225 163.256C233.36 163.256 231.484 163.221 229.619 163.278C228.83 163.301 228.521 163.244 228.658 162.283C229.482 156.88 230.225 151.477 230.969 146.062C231.083 145.227 231.438 144.986 232.285 144.986C236.346 144.998 240.397 144.952 244.458 144.872C245.374 144.849 245.568 145.101 245.408 145.936ZM229.814 146.016C228.99 151.557 228.166 157.097 227.377 162.649C227.296 163.21 227.068 163.313 226.587 163.324C221.793 163.393 217.011 163.484 212.217 163.576C211.668 163.587 211.53 163.416 211.588 162.855C212.16 157.372 212.732 151.877 213.212 146.383C213.304 145.307 213.75 145.181 214.654 145.204C216.976 145.261 219.31 145.227 221.633 145.227C221.633 145.169 221.633 145.112 221.633 145.043C224.047 145.043 226.473 145.078 228.887 145.021C229.711 144.998 229.928 145.25 229.814 146.016ZM212.045 146.234C211.45 151.763 210.901 157.303 210.398 162.843C210.329 163.61 209.952 163.587 209.414 163.587C207.492 163.576 205.581 163.587 203.659 163.587C203.659 163.599 203.659 163.622 203.659 163.633C201.782 163.633 199.918 163.599 198.041 163.656C197.298 163.679 196.874 163.519 196.68 162.74C196.268 161.023 195.341 159.581 194.151 158.299C193.762 157.875 193.396 157.475 193.442 156.765C193.659 153.297 193.831 149.84 193.968 146.371C194.002 145.501 194.266 145.238 195.158 145.238C200.455 145.272 205.753 145.261 211.05 145.215C211.851 145.204 212.148 145.318 212.045 146.234ZM194.185 177.953C198.27 178.663 202.389 179.109 206.519 179.544C206.931 179.59 207.549 179.441 207.389 180.22C207.274 180.781 207.56 181.593 206.508 181.593C201.542 181.582 196.565 181.593 191.611 181.593C191.359 180.231 192.309 179.281 192.961 178.217C193.282 177.679 193.762 177.885 194.185 177.953ZM192.813 146.28C192.607 149.657 192.435 153.022 192.24 156.513C185.902 152.965 178.065 153.8 173.957 161.126C173.957 160.108 173.957 159.364 173.957 158.619C173.957 154.556 173.969 150.492 173.946 146.417C173.946 145.673 174.015 145.261 174.953 145.272C180.616 145.295 186.28 145.284 191.943 145.227C192.835 145.215 192.858 145.604 192.813 146.28ZM178.374 231.33C179.449 229.339 181.085 228.755 183.476 229.281C181.612 230.014 180.364 231.502 178.374 231.33ZM183.682 230.884C184.987 229.945 186.177 228.766 188.03 229.201C186.577 229.762 185.124 230.323 183.682 230.884ZM187.698 227.805C189.529 225.79 191.119 224.061 192.698 222.322C192.904 222.093 193.156 222.07 193.442 222.07C195.295 222.07 197.149 222.07 199.277 222.07C196.828 223.936 194.655 225.87 192.206 227.347C191.131 227.976 189.483 227.656 187.698 227.805ZM194.506 227.244C196.828 225.447 199.014 223.398 201.542 221.955C202.812 221.234 204.711 221.612 206.325 221.497C206.336 221.589 206.359 221.669 206.37 221.761C203.544 223.489 200.718 225.229 197.892 226.946C196.874 227.576 195.696 227.106 194.506 227.244ZM200.57 226.763C203.419 225.012 206.256 223.226 209.139 221.543C210.089 220.994 211.221 221.257 212.308 221.326C208.441 223.249 204.883 225.767 200.799 227.198C200.718 227.049 200.638 226.9 200.57 226.763ZM210.546 224.073C210.478 223.97 210.409 223.878 210.341 223.775C212.617 222.814 214.562 221.108 217.194 220.891C214.974 221.944 212.755 223.008 210.546 224.073ZM217.926 219.322C220.317 217.342 222.503 215.534 224.676 213.725C224.962 213.496 225.26 213.29 225.512 213.027C227.445 211.092 229.608 209.719 232.639 210.188C228.784 213.072 224.985 215.957 221.152 218.773C220.317 219.403 219.253 219.265 217.926 219.322ZM224.127 218.647C224.047 218.533 223.967 218.407 223.875 218.292C227.537 215.534 231.209 212.786 234.859 210.016C235.488 209.535 236.221 209.73 236.941 209.627C232.674 212.626 228.395 215.637 224.127 218.647ZM249.458 197.585C246.541 200.595 243.554 203.549 240.683 206.616C239.653 207.715 238.532 208.219 236.919 208.059C239.344 205.426 241.712 202.85 244.081 200.286C244.573 199.748 245.156 199.279 245.568 198.684C246.838 196.852 248.508 195.914 250.751 196.142C250.499 196.726 249.916 197.104 249.458 197.585ZM250.213 194.872C249.756 194.883 249.309 194.941 248.589 194.998C251.586 190.293 254.469 185.783 257.353 181.261C257.593 180.884 257.913 180.712 258.359 180.666C259.492 180.575 260.625 180.46 261.757 180.346C261.94 180.815 261.563 181.021 261.38 181.284C258.771 185.131 256.083 188.919 253.577 192.823C252.73 194.174 251.723 194.826 250.213 194.872ZM254.401 193.922C254.492 193.349 254.904 192.983 255.19 192.56C257.822 188.691 260.476 184.833 263.107 180.952C263.531 180.323 263.966 179.796 264.824 179.876C262.959 183.414 255.419 193.624 254.401 193.922ZM266.895 170.204C266.689 170.673 266.334 170.742 265.933 170.833C264.538 171.165 263.142 171.52 261.483 171.921C262.696 169.071 263.805 166.495 264.869 163.897C265.064 163.416 265.327 163.152 265.853 163.118C267.261 163.038 268.656 162.924 270.235 162.809C269.08 165.362 267.959 167.777 266.895 170.204ZM268.222 170.227C269.332 167.766 270.384 165.442 271.448 163.107C271.837 162.26 272.592 162.603 273.393 162.5C272.272 164.892 271.219 167.17 270.132 169.448C269.789 170.169 269.068 170.147 268.222 170.227ZM320.977 141.026C320.085 142.285 319.101 143.51 318.06 144.654C316.63 146.223 315.177 147.653 314.639 149.92C314.193 151.843 312.179 152.827 310.097 152.667C309.364 152.61 308.815 152.793 308.22 153.205C298.987 159.627 288.77 163.977 278.153 167.457C276.002 168.166 273.851 168.864 271.46 169.402C271.86 168.544 272.158 167.811 272.535 167.125C275.601 161.55 276.597 155.3 278.336 149.29C278.622 148.283 278.919 147.276 279.137 146.257C279.205 145.925 279.709 145.375 278.862 145.204C278.153 145.055 278.164 145.536 278.05 145.982C276.871 150.424 275.636 154.842 274.514 159.295C274.194 160.565 273.771 161.493 272.089 161.321C272.752 158.734 273.416 156.124 274.103 153.526C274.778 150.927 275.487 148.34 276.116 145.73C276.208 145.341 276.803 144.677 275.807 144.448C274.835 144.231 275.041 145.066 274.938 145.467C273.599 150.469 272.272 155.483 271.025 160.52C270.819 161.355 270.476 161.653 269.663 161.676C268.348 161.722 267.032 161.848 265.579 161.939C266.506 158.07 267.409 154.293 268.325 150.515C268.725 148.878 269.24 147.264 269.503 145.616C269.675 144.528 270.178 144.311 271.128 144.322C272.158 144.334 273.187 144.196 274.343 144.128C273.645 143.361 273.004 142.994 272.032 142.994C271.357 142.994 270.247 143.739 269.938 142.331C269.938 142.308 269.309 142.308 269.194 142.456C268.302 143.658 267.009 143.178 265.876 143.258C264.24 143.361 262.593 143.304 260.945 143.349C260.293 143.372 259.858 143.304 260.041 142.491C260.144 142.033 260.041 141.712 259.469 141.644C258.748 141.552 258.863 142.056 258.886 142.422C258.954 143.292 258.531 143.487 257.742 143.487C254.458 143.498 251.163 143.544 247.879 143.636C247.101 143.658 246.975 143.372 247.044 142.685C247.136 141.873 247.101 141.037 247.147 140.224C247.181 139.652 246.849 139.538 246.392 139.503C245.82 139.469 246.026 139.904 245.98 140.167C245.82 141.312 246.255 142.891 245.419 143.51C244.676 144.059 243.223 143.647 242.079 143.67C238.886 143.716 235.683 143.727 232.491 143.842C231.392 143.887 231.209 143.544 231.312 142.525C231.484 140.888 231.484 139.24 231.53 137.592C231.541 137.282 231.77 136.79 231.141 136.802C230.614 136.813 230.363 137.054 230.34 137.649C230.294 139.389 230.145 141.117 230.111 142.857C230.1 143.567 230.019 143.899 229.173 143.899C224.242 143.864 219.31 143.876 214.368 143.922C213.567 143.933 213.372 143.67 213.418 142.903C213.533 140.808 213.544 138.702 213.67 136.607C213.716 135.84 213.43 135.508 212.583 135.462C212.343 137.786 212.205 140.133 212.308 142.479C212.366 143.773 211.908 144.036 210.707 144.025C205.684 143.99 200.65 144.002 195.627 144.128C194.277 144.162 194.071 143.704 194.128 142.525C194.231 140.247 194.197 137.958 194.208 135.668C194.208 135.268 194.437 134.718 193.659 134.695C192.858 134.673 193.087 135.233 193.076 135.634C193.007 138.107 192.915 140.568 192.904 143.04C192.904 143.853 192.71 144.128 191.84 144.128C186.268 144.082 180.696 144.082 175.124 144.128C174.095 144.139 173.934 143.761 173.957 142.869C174.015 140.224 173.98 137.569 173.957 134.913C173.957 134.592 174.243 134.032 173.5 134.02C172.848 134.009 172.79 134.398 172.79 134.913C172.802 137.569 172.767 140.213 172.825 142.869C172.848 143.761 172.699 144.139 171.669 144.128C166.097 144.07 160.525 144.082 154.953 144.128C154.107 144.139 153.878 143.899 153.878 143.063C153.878 140.636 153.798 138.221 153.695 135.794C153.684 135.382 154.027 134.684 153.157 134.673C152.173 134.661 152.574 135.44 152.574 135.875C152.562 138.255 152.574 140.625 152.642 143.006C152.665 143.784 152.551 144.139 151.624 144.128C146.235 144.048 140.846 144.025 135.458 144.025C134.645 144.025 134.462 143.727 134.474 142.983C134.508 139.984 134.485 136.973 134.485 133.734C133.272 134.409 133.009 135.096 133.066 136.058C133.204 138.336 133.204 140.625 133.341 142.903C133.387 143.739 133.204 144.002 132.323 143.99C127.437 143.922 122.552 143.876 117.655 143.899C116.74 143.899 116.637 143.555 116.637 142.788C116.625 141.277 116.499 139.778 116.408 138.267C116.385 137.935 116.511 137.511 115.893 137.546C115.332 137.58 115.218 137.843 115.241 138.336C115.321 139.847 115.344 141.346 115.47 142.857C115.527 143.59 115.435 143.91 114.589 143.899C110.39 143.807 106.179 143.773 101.981 143.761C101.203 143.761 100.962 143.521 100.974 142.766C100.974 141.85 100.836 140.945 100.779 140.03C100.756 139.686 100.745 139.4 100.264 139.446C99.8525 139.48 99.5436 139.549 99.6236 140.076C99.6465 140.259 99.658 140.442 99.6465 140.625C99.5779 141.609 100.161 142.903 99.5321 143.475C98.9944 143.956 97.713 143.624 96.7633 143.624C94.292 143.624 91.8322 143.567 89.3609 143.601C88.4112 143.613 87.7362 143.521 87.8735 142.319C87.9078 142.056 88.0909 141.518 87.4044 141.609C86.9353 141.678 86.5921 141.804 86.7294 142.365C87.0154 143.521 86.3175 143.441 85.5052 143.441C82.0957 143.429 78.6633 142.96 75.2881 143.899C74.8648 144.013 74.43 144.116 73.858 144.265C74.0868 144.357 74.1554 144.402 74.2127 144.402C76.9013 144.505 76.9242 144.505 77.5649 147.115C78.7091 151.751 79.8418 156.387 80.9744 161.035C81.0431 161.332 81.0545 161.641 81.1117 162.054C79.5443 161.939 78.0455 161.825 76.5581 161.745C75.9174 161.71 75.9174 161.241 75.803 160.794C74.533 155.907 73.2516 151.03 71.9816 146.142C71.9473 146.005 71.9587 145.868 71.9015 145.742C71.6841 145.272 71.7986 144.437 70.8489 144.757C70.0252 145.043 70.5972 145.639 70.6773 145.994C71.6727 149.966 72.7253 153.915 73.7664 157.875C74.0639 159.02 74.3614 160.165 74.6703 161.39C73.4804 161.516 72.7139 161.321 72.3592 159.902C71.2265 155.311 69.9336 150.767 68.7094 146.2C68.5836 145.707 68.595 145.146 67.817 145.318C66.8788 145.513 67.4623 146.085 67.5653 146.474C68.8696 151.442 70.0938 156.433 71.5583 161.355C72.199 163.507 73.3431 165.511 74.3156 167.72C70.5171 166.781 66.9475 165.511 63.3778 164.229C53.3896 160.657 43.8934 156.147 35.4612 149.622C30.736 145.959 26.5599 141.77 23.6424 136.481C18.551 127.255 18.6998 118.143 24.3861 109.215C28.6193 102.564 34.5573 97.6991 41.1017 93.5095C49.8657 87.912 59.4191 84.0773 69.2586 80.895C71.1464 80.2769 73.0685 79.7618 74.9792 79.2009C75.0708 79.2696 75.1737 79.3497 75.2653 79.4184C71.5812 85.3364 70.3112 92.0901 68.5149 98.6492C68.3776 99.1414 67.6797 100.011 68.4348 100.263C69.4989 100.618 69.5561 99.4848 69.7391 98.7865C70.6087 95.5814 71.4324 92.3648 72.2791 89.1597C72.7139 87.5342 72.7139 87.5342 74.6589 87.3511C73.5491 91.6322 72.4621 95.879 71.3409 100.195C72.4965 99.9656 72.8511 99.2673 73.0914 98.3172C73.9381 94.8717 74.9106 91.4605 75.7458 88.015C75.9403 87.2252 76.2606 86.9619 77.0158 86.939C78.3315 86.8932 79.6472 86.7673 81.1689 86.6643C80.2308 90.5791 79.304 94.4253 78.3773 98.3172C79.3955 98.5233 79.7273 98.0196 79.9218 97.1954C80.6541 94.0475 81.4435 90.9225 82.1414 87.7746C82.3359 86.8818 82.6906 86.5154 83.6631 86.5154C85.6653 86.504 87.679 86.3895 89.6812 86.1949C90.6652 86.1034 90.7681 86.4353 90.5851 87.2366C89.8986 90.3044 89.2236 93.3607 88.5485 96.4285C88.5028 96.646 88.4684 96.8634 88.4227 97.1382C89.5554 96.8406 89.91 96.108 90.1045 95.1006C90.6194 92.4221 91.2601 89.7664 91.8093 87.0878C91.958 86.3781 92.1754 86.0576 93.0106 86.0461C96.1112 86.0118 99.2232 85.8744 102.324 85.7371C103.045 85.7027 103.273 85.7943 103.09 86.6185C102.587 89.0223 102.175 91.4491 101.763 93.8758C101.706 94.1849 101.191 94.7 101.946 94.8373C102.484 94.9289 102.862 94.7458 102.976 94.059C103.388 91.5864 103.903 89.1368 104.303 86.6643C104.418 85.9317 104.669 85.6455 105.413 85.634C109.383 85.5539 113.365 85.4623 117.335 85.325C118.158 85.3021 118.204 85.5768 118.078 86.2751C117.769 88.0264 117.529 89.7893 117.323 91.5521C117.266 92.0329 116.763 92.7769 117.644 92.9486C118.525 93.1203 118.456 92.3076 118.547 91.7581C118.833 89.9152 119.142 88.0608 119.348 86.2064C119.428 85.5081 119.634 85.2906 120.332 85.2906C124.989 85.2448 129.645 85.1533 134.313 85.0502C135.023 85.0388 135.229 85.1762 135.137 85.966C134.588 91.1858 134.13 96.417 133.593 101.637C133.513 102.472 133.753 103.709 132.163 103.411C131.751 103.331 131.613 103.571 131.659 103.983C131.705 104.396 131.831 104.727 132.311 104.636C133.375 104.453 133.352 105.082 133.318 105.849C133.158 109.455 133.078 113.061 132.883 116.667C132.78 118.464 132.792 120.192 133.924 121.841C133.993 120.662 134.085 119.528 134.119 118.395C134.245 114.286 134.394 110.176 134.451 106.067C134.462 104.968 134.691 104.487 135.869 104.613C136.773 104.705 137.7 104.624 138.604 104.613C139.05 104.602 139.542 104.705 139.508 103.961C139.473 103.308 139.05 103.4 138.65 103.411C137.643 103.411 136.636 103.365 135.641 103.434C134.828 103.491 134.657 103.205 134.737 102.438C135.172 98.26 135.572 94.0818 135.984 89.9037C136.11 88.5873 136.316 87.271 136.373 85.9546C136.407 85.2105 136.682 85.0502 137.357 85.0502C142.517 85.0502 147.677 85.0274 152.848 84.9816C153.523 84.9701 153.718 85.1762 153.661 85.8401C153.546 87.1107 153.466 88.3927 153.42 89.6748C153.409 90.0068 153.134 90.5333 153.844 90.602C154.484 90.6592 154.599 90.3044 154.622 89.7778C154.667 88.4958 154.77 87.2252 154.782 85.9431C154.782 85.2219 154.953 84.89 155.777 84.89C161.166 84.9243 166.555 84.9243 171.944 84.89C172.71 84.89 172.859 85.1876 172.836 85.863C172.79 87.0535 172.859 88.2439 172.813 89.423C172.779 90.1098 173.042 90.5562 173.683 90.5219C174.323 90.4875 173.957 89.8694 173.969 89.5374C174.026 88.3012 174.026 87.0649 173.98 85.8401C173.957 85.1418 174.14 84.8785 174.884 84.89C180.273 84.9129 185.662 84.9129 191.051 84.89C191.76 84.89 192.023 85.1075 192.023 85.8286C192.023 87.0191 192.069 88.2096 192.149 89.3886C192.183 89.9152 191.989 90.7279 192.973 90.602C193.785 90.499 193.396 89.8122 193.385 89.4115C193.373 88.221 193.282 87.042 193.167 85.8515C193.099 85.1647 193.259 84.9014 194.025 84.9129C199.14 84.993 204.254 85.0274 209.379 85.0502C210.112 85.0502 210.409 85.2105 210.443 86.0232C210.512 87.5228 210.764 89.0223 210.901 90.5219C210.947 91.0599 210.958 91.5521 211.702 91.4376C212.526 91.3117 212.068 90.7165 212.045 90.3731C211.954 88.8735 211.816 87.374 211.61 85.8744C211.53 85.2449 211.691 85.0731 212.297 85.0846C217.091 85.1647 221.885 85.2449 226.69 85.3021C227.216 85.3135 227.354 85.4967 227.422 86.0118C227.651 87.9578 227.96 89.8923 228.235 91.8383C228.28 92.1588 228.326 92.4793 228.441 92.7769C228.612 93.2119 229.081 93.1775 229.39 93.0974C229.802 92.9944 229.608 92.548 229.562 92.2732C229.287 90.2357 229.024 88.1981 228.658 86.1835C228.509 85.4051 228.784 85.3593 229.402 85.3708C233.417 85.4623 237.445 85.5539 241.461 85.5997C242.216 85.6112 242.365 85.9774 242.467 86.5727C243.131 90.2471 243.806 93.9216 244.481 97.6189C245.774 97.5274 245.591 96.6689 245.442 95.8676C244.87 92.8227 244.321 89.7778 243.692 86.7444C243.509 85.8973 243.726 85.7371 244.527 85.7714C247.582 85.9088 250.648 86.0232 253.703 86.0461C254.595 86.0576 254.835 86.4124 254.984 87.1794C255.533 89.9037 256.151 92.6052 256.735 95.3181C256.803 95.6272 256.895 95.9362 256.964 96.2453C257.089 96.7948 257.547 96.8291 257.936 96.7719C258.6 96.6689 258.142 96.1652 258.085 95.9248C257.421 92.7197 256.712 89.5145 255.991 86.2064C257.375 86.0576 258.714 86.3666 260.041 86.3666C260.728 86.3666 260.533 86.8589 260.579 87.2252C260.945 90.0411 260.831 92.8799 260.888 95.7073C260.899 96.2224 260.808 96.7719 261.38 97.2526C261.38 96.3026 261.357 95.341 261.38 94.3909C261.46 92.113 261.551 89.8236 261.666 87.5457C261.689 87.0649 261.506 86.2751 262.421 86.4468C263.153 86.5841 264.172 85.9889 264.469 87.374C265.201 90.705 266.071 94.0017 266.872 97.3213C267.055 98.0768 267.329 98.6263 268.393 98.3516C267.467 94.5054 266.528 90.6363 265.59 86.7215C267.203 86.5154 268.714 86.9962 270.258 86.9619C270.888 86.9504 270.865 87.5342 270.979 87.9463C271.894 91.4147 272.798 94.8946 273.714 98.3744C273.771 98.5919 273.816 98.8209 273.885 99.0384C274.045 99.5535 274.503 99.6222 274.881 99.5306C275.441 99.3932 275.098 98.9239 275.029 98.6492C274.103 95.0319 273.153 91.4376 272.203 87.8318C272.158 87.6716 272.146 87.5113 272.112 87.3396C273.53 87.1565 274.16 87.7174 274.48 89.0796C275.235 92.3534 276.173 95.5928 277.043 98.8438C277.226 99.542 277.352 100.355 278.576 100.011C276.631 93.7499 275.796 87.1565 272.26 81.1697C273.874 81.3529 275.155 81.8795 276.448 82.2801C288.473 85.9774 299.914 90.8538 310.097 98.4088C314.982 102.037 319.341 106.193 322.43 111.458C328.38 121.497 327.751 131.445 320.977 141.026Z" fill="white"/>
<path d="M169.052 74.1895C169.019 74.1783 168.985 74.1671 168.951 74.1559C168.996 74.1671 169.03 74.1783 169.052 74.1895Z" fill="white"/>
<path d="M184.513 171.596C184.421 171.664 184.399 171.767 184.387 171.87C184.433 171.779 184.467 171.687 184.513 171.596Z" fill="white"/>
<path d="M243.275 219.846C241.868 220.281 240.655 221.094 239.374 221.781C238.939 222.021 238.321 222.697 237.978 222.182C237.589 221.598 238.275 221.048 238.79 220.659C239.042 220.476 239.362 220.224 239.637 220.247C240.975 220.362 241.811 219.457 242.76 218.793C243.287 218.427 244.373 218.152 244.145 217.557C243.881 216.87 242.875 216.607 242.017 216.596C241.525 216.596 240.998 216.596 240.529 216.733C238.23 217.397 236.342 218.713 234.797 220.499C233.859 221.586 233.481 222.891 233.87 224.334C234.225 225.673 235.301 226.314 236.674 226.028C238.447 225.65 239.888 224.597 241.445 223.75C241.834 223.532 242.371 222.971 242.714 223.509C243.023 223.99 242.509 224.517 242.097 224.895C241.673 225.284 241.158 225.524 240.609 225.478C240.163 225.444 239.831 225.558 239.488 225.799C238.447 226.531 237.394 227.241 236.204 228.054C237.28 228.832 238.252 229.347 239.397 229.13C242.142 228.592 244.316 227.081 246.055 224.929C246.524 224.357 246.788 223.681 246.902 222.937C247.245 220.396 245.689 219.091 243.275 219.846Z" fill="white"/>
<path d="M100.005 28.182C100.165 27.7356 100.68 27.438 101.183 27.3121C101.618 27.1976 102.167 27.0488 102.453 27.4723C102.728 27.873 102.328 28.2507 102.064 28.5483C101.286 29.4412 100.44 30.2768 99.6731 31.1811C97.6595 33.5735 97.6824 34.7411 99.6159 37.1793C100.039 37.7059 100.291 37.7173 100.794 37.3396C103.643 35.199 106.515 33.0928 109.364 30.9751C109.57 30.8148 109.936 30.4943 109.902 30.4485C109.513 29.8304 109.135 29.1779 108.609 28.6971C108.231 28.3537 107.899 28.9146 107.59 29.1436C105.874 30.3798 104.181 31.6504 102.488 32.8982C102.694 31.8794 103.392 31.307 103.998 30.666C104.993 29.6014 106.069 28.5941 106.595 27.1862C107.053 25.9842 106.721 25.0227 105.714 24.313C104.707 23.6147 103.632 23.2828 102.362 23.672C99.8219 24.4503 97.8082 25.9384 96.2751 28.0676C95.4399 29.2351 95.2454 30.5401 95.9433 32.0282C97.3277 30.6546 99.2956 30.1395 100.005 28.182Z" fill="white"/>
<path d="M232.86 230.897C230.881 231.928 228.867 232.866 226.899 233.908C226.236 234.263 225.995 234.08 225.664 233.473C225.309 232.809 225.618 232.614 226.121 232.374C227.551 231.687 228.947 230.909 230.4 230.268C231.304 229.879 230.881 229.432 230.663 228.894C230.412 228.253 230.114 228.116 229.473 228.459C228.078 229.215 226.613 229.867 225.229 230.634C224.542 231.012 224.325 230.749 224.005 230.176C223.616 229.489 224.005 229.318 224.485 229.077C226.236 228.219 227.952 227.269 229.748 226.49C230.835 226.021 230.297 225.46 229.988 224.911C229.714 224.396 229.702 223.56 228.615 224.132C225.606 225.723 222.54 227.211 219.474 228.711C218.879 229.009 218.662 229.238 219.016 229.924C220.378 232.557 221.671 235.224 223.009 237.869C223.112 238.075 223.135 238.407 223.467 238.418C223.661 238.338 223.833 238.281 223.993 238.201C227.323 236.529 230.652 234.858 233.993 233.198C235.08 232.66 234.142 232.145 233.981 231.676C233.844 231.218 233.798 230.405 232.86 230.897Z" fill="white"/>
<path d="M216.695 233.568C215.677 230.351 215.688 230.409 212.519 231.439C211.569 231.748 211.627 232.171 211.89 232.893C212.347 234.175 212.782 235.48 213.183 236.785C213.732 238.582 213.286 239.646 211.833 240.104C210.277 240.596 209.361 240.07 208.732 238.307C208.515 237.712 208.332 237.094 208.114 236.487C207.748 235.457 207.611 233.831 206.936 233.568C206.112 233.247 204.842 234.072 203.767 234.392C203.675 234.415 203.583 234.427 203.503 234.461C203.114 234.61 202.92 234.816 203.091 235.285C203.744 237.082 204.281 238.937 205.014 240.699C205.769 242.508 207.268 243.389 209.43 243.424C211.661 243.172 213.972 242.542 215.963 241.066C217.37 240.024 217.954 238.57 217.622 236.853C217.427 235.743 217.038 234.655 216.695 233.568Z" fill="white"/>
<path d="M160.798 237.779C157.354 237.161 153.899 236.646 150.283 236.074C149.654 235.799 149.517 236.234 149.414 236.898C149.048 239.29 148.647 241.671 148.235 244.052C147.869 246.204 147.858 246.204 149.986 246.639C152.148 247.086 152.148 247.086 152.469 244.979C152.526 244.613 152.663 244.258 152.652 243.903C152.617 242.907 153.178 242.804 153.956 242.953C155.478 243.228 156.999 243.468 158.521 243.754C159.528 243.949 159.288 243.136 159.448 242.644C159.631 242.083 159.482 241.866 158.853 241.786C157.228 241.58 155.626 241.225 154.002 241.007C153.327 240.916 153.167 240.664 153.27 240.034C153.372 239.462 153.453 239.153 154.208 239.302C156.221 239.679 158.258 239.885 160.26 240.298C161.05 240.458 161.21 240.091 161.153 239.576C161.084 238.958 162.045 237.997 160.798 237.779Z" fill="white"/>
<path d="M200.82 243.26C198.944 243.615 197.033 243.844 195.203 244.324C194.127 244.611 194.07 244.073 193.944 243.374C193.589 241.44 193.235 239.517 192.88 237.582C192.8 237.113 192.777 236.621 192.342 236.769C191.038 237.01 190.02 237.227 188.99 237.399C188.578 237.468 188.475 237.594 188.555 238.017C189.139 241.062 189.711 244.118 190.248 247.175C190.34 247.713 190.5 247.804 191.049 247.69C194.482 247.026 197.926 246.35 201.381 245.801C202.983 245.549 202.044 244.599 202.056 243.912C202.079 242.974 201.427 243.157 200.82 243.26Z" fill="white"/>
<path d="M277.489 54.1728C280.041 54.1842 282.569 54.4017 285.052 55.0084C288.416 55.8326 289.869 57.5725 290.086 61.0066C290.143 61.9567 290.258 62.9068 290.349 63.8569C290.601 63.0213 290.578 62.2085 290.612 61.3843C290.761 57.687 292.283 55.8097 295.875 54.9512C298.358 54.3559 300.898 54.1728 303.449 54.1614C305.509 54.1614 307.58 54.1614 309.639 54.1614C309.639 54.0011 309.639 53.8408 309.639 53.6806C307.488 53.6806 305.337 53.6806 303.186 53.6806C300.543 53.6806 297.912 53.4516 295.349 52.7648C292.855 52.1009 291.253 50.6014 290.795 47.9342C290.567 46.6407 290.738 45.3129 290.406 44.0308C290.235 45.0611 290.143 46.0913 290.063 47.1215C289.823 50.2236 288.313 52.0437 285.315 52.7992C282.832 53.4287 280.304 53.6577 277.741 53.6806C275.487 53.5661 273.245 53.6462 271.002 53.8065C271.002 53.921 271.013 54.0469 271.013 54.1614C273.176 54.1728 275.327 54.1728 277.489 54.1728Z" fill="white"/>
<path d="M73.0267 193.275C69.2053 193.195 65.3725 193.126 61.6427 192.141C58.6336 191.34 56.723 189.612 56.2539 186.384C56.0365 184.941 56.2539 183.465 55.739 182.045C55.5445 183.064 55.5788 184.083 55.5331 185.102C55.3843 188.993 53.8054 191.065 50.0985 192.107C46.3343 193.172 42.4557 193.195 38.5772 193.275C36.9754 193.275 35.3622 193.275 33.7604 193.275C33.7604 193.423 33.7604 193.561 33.7604 193.71C36.2775 193.71 38.7945 193.71 41.3116 193.71C44.0918 193.778 46.8606 193.973 49.5722 194.614C52.7643 195.358 55.0297 197.064 55.3958 200.566C55.5216 201.745 55.5331 202.924 55.6132 204.103C55.636 204.378 55.453 204.767 56.0937 204.916C56.0937 203.943 56.0708 203.005 56.0937 202.066C56.231 197.762 58.0158 195.575 62.2033 194.591C64.8691 193.961 67.5921 193.778 70.3266 193.71C72.8437 193.71 75.3722 193.71 77.8892 193.71C77.8892 193.561 77.8892 193.423 77.8892 193.275C76.2531 193.275 74.6399 193.275 73.0267 193.275Z" fill="white"/>
<path d="M269.306 80.369C269.329 80.4262 269.352 80.4835 269.386 80.5407C269.397 80.4491 269.397 80.369 269.386 80.2774C269.363 80.266 269.329 80.3003 269.306 80.369C269.306 80.3576 269.306 80.3576 269.306 80.369Z" fill="white"/>
<path d="M135.143 223.186C135.052 223.266 134.96 223.346 134.869 223.438C135.155 223.575 135.189 223.426 135.143 223.186Z" fill="white"/>
<path d="M168.605 73.9418C168.753 73.9761 168.891 74.0334 169.028 74.102C169.131 74.102 169.222 74.1135 169.325 74.1135C168.605 73.7472 167.872 73.461 167.06 73.4038C167.346 73.6442 167.689 73.7357 168.044 73.8159C167.541 73.7357 167.014 73.7243 166.499 73.7014C167.312 74.0562 168.17 74.0562 169.028 74.102C168.891 74.0334 168.742 73.9876 168.605 73.9418Z" fill="white"/>
<path d="M183.111 243.329C184.484 242.756 184.816 241.829 184.587 240.593C184.347 239.299 183.466 238.761 182.322 238.544C178.501 237.823 174.679 238.67 170.858 238.532C170.217 238.51 170.263 238.922 170.274 239.345C170.377 242.31 170.503 245.275 170.56 248.239C170.572 248.984 170.926 249.029 171.498 249.018C172.597 248.984 173.695 249.029 174.782 248.949C177.631 248.743 180.526 248.938 183.317 248.148C184.301 247.862 185.194 247.438 185.434 246.271C185.766 244.748 185.331 244.164 183.111 243.329ZM174.702 241.978C174.713 241.394 174.679 240.925 175.514 240.971C176.784 241.051 178.054 240.707 179.324 240.982C179.713 241.062 180.045 241.188 180.114 241.612C180.182 242.115 179.828 242.299 179.416 242.47C178.569 242.825 177.688 242.527 177.162 242.653C176.441 242.699 176.029 242.699 175.617 242.756C174.999 242.848 174.679 242.676 174.702 241.978ZM179.416 246.156C178.706 246.236 177.974 246.179 177.242 246.179C177.242 246.202 177.242 246.213 177.242 246.236C176.796 246.259 176.338 246.248 175.892 246.305C175.286 246.385 174.862 246.419 174.839 245.561C174.816 244.84 174.931 244.508 175.743 244.531C176.956 244.565 178.18 244.451 179.404 244.462C179.931 244.462 180.583 244.531 180.583 245.275C180.583 246.007 179.931 246.099 179.416 246.156Z" fill="white"/>
<path d="M215.32 19.9222C215.926 20.174 216.224 20.2084 216.532 19.4987C217.436 17.4611 217.482 17.484 219.519 18.4112C219.976 18.6172 220.422 18.8462 220.834 19.1209C221.406 19.4987 221.841 20.0939 221.624 20.7349C221.006 22.5435 222.196 23.0129 223.477 23.4707C224.026 23.6653 224.564 23.9172 225.182 24.169C225.525 22.761 226.246 21.4217 224.804 19.9794C226.715 20.0252 227.642 19.1324 228.122 17.7015C228.637 16.2019 228.065 15.0344 226.921 14.0728C226.155 13.4203 225.308 12.8938 224.381 12.4817C222.024 11.4171 219.644 10.3984 217.31 9.28801C216.521 8.91027 216.235 9.11631 215.938 9.86036C215.16 11.7605 214.313 13.6264 213.489 15.5037C212.139 18.6172 212.139 18.6058 215.32 19.9222ZM218.706 14.4964C218.992 14.027 218.912 13.3059 219.599 13.0769C221.052 13.8553 222.711 14.1873 223.912 15.3778C224.198 15.6639 224.175 16.0302 223.969 16.3851C223.729 16.7857 223.363 16.9689 222.928 16.8773C221.452 16.5682 220.125 15.87 218.752 15.2633C218.237 15.0458 218.592 14.7024 218.706 14.4964Z" fill="white"/>
<path d="M142.756 234.41C140.719 233.025 138.42 232.384 136.475 232.224C133.294 232.212 131.544 233.471 130.8 235.978C130.079 238.393 130.846 240.42 133.054 241.862C134.839 243.029 136.829 243.59 138.912 243.899C141.509 244.277 143.706 243.11 144.644 240.774C145.662 238.233 145.021 235.944 142.756 234.41ZM138.019 240.82C136.029 240.717 134.713 239.47 134.839 237.821C134.953 236.356 136.154 235.223 137.539 235.28C139.472 235.36 140.88 236.642 140.788 238.256C140.708 239.801 139.53 240.9 138.019 240.82Z" fill="white"/>
<path d="M82.2945 56.8666C83.1183 56.008 83.8391 55.0694 84.3539 53.9934C86.1044 50.3418 83.4501 46.198 79.2626 46.2095C78.4846 46.1294 77.6608 46.4155 76.94 46.9078C75.0522 48.2127 73.6678 49.9297 72.9699 52.139C72.5008 53.6042 72.7411 54.9893 73.6678 56.1568C75.7844 58.8583 79.1024 60.1747 82.2945 56.8666ZM78.2672 50.1014C79.5944 50.1472 81.5051 51.8986 81.4707 53.0204C81.4364 54.0048 80.4525 54.9206 79.4685 54.8862C78.1185 54.8405 76.2535 53.112 76.2879 51.9558C76.3222 50.96 77.2718 50.0671 78.2672 50.1014Z" fill="white"/>
<path d="M88.5951 46.5187C91.6613 46.5645 93.4576 44.5269 95.0022 42.2719C96.1005 40.6808 96.1806 38.9065 95.1738 37.2353C94.0983 35.4495 92.6109 34.1675 90.3685 34.1446C88.1717 34.1675 85.3229 36.2279 83.9957 38.7577C82.3024 42.0201 84.8881 46.45 88.5951 46.5187ZM89.0298 37.7847C90.174 37.7962 92.1075 39.7307 92.1304 40.9097C92.1533 41.8255 91.1121 42.89 90.1968 42.89C89.0298 42.89 87.142 40.9784 87.1191 39.7765C87.1077 38.8264 88.126 37.7733 89.0298 37.7847Z" fill="white"/>
<path d="M230.5 27.3078C230.832 27.5253 231.141 27.6856 231.484 27.3765C232.514 26.4379 233.36 27.0331 234.253 27.6512C235.225 28.3266 236.198 29.002 237.239 29.5743C238.097 30.0436 238.543 30.616 238.337 31.6348C238.28 31.9209 238.189 32.2872 238.543 32.4933C239.642 33.1458 240.626 34.0043 242.021 34.5537C242.021 31.3142 241.758 28.2236 242.101 25.213C242.399 22.6032 241.163 21.4127 239.184 20.4168C238.795 20.2222 238.497 20.1192 238.051 20.3252C234.516 21.9621 230.969 23.5647 227.319 25.2245C228.452 25.9685 229.482 26.6325 230.5 27.3078ZM235.889 25.11C236.758 24.6521 237.639 24.2057 238.738 23.6563C238.681 24.9498 238.623 26.0716 238.555 27.4223C237.548 26.7698 236.747 26.2547 235.958 25.7396C235.82 25.648 235.614 25.6022 235.626 25.3046C235.694 25.2588 235.774 25.1673 235.889 25.11Z" fill="white"/>
<path d="M111.478 26.4612C111.718 26.3353 111.959 26.2093 112.199 26.072C113.755 25.2249 115.311 24.3778 116.856 23.5193C117.313 23.2675 117.645 23.05 118.045 23.7254C119.007 25.3279 119.052 25.305 120.746 24.3778C121.02 24.229 121.295 24.0573 121.592 23.9314C122.519 23.5651 122.839 23.0843 122.141 22.1686C121.672 21.5504 121.238 20.8293 122.473 20.463C123.08 20.2798 122.919 19.8334 122.633 19.5129C122.222 19.0665 122.199 17.7844 121.478 18.208C120.082 19.0436 119.888 18.0591 119.453 17.2579C118.995 16.4222 118.537 15.5752 118.08 14.7395C117.954 14.5106 117.794 14.0756 117.553 14.213C116.272 14.9685 114.544 15.2318 113.789 16.5253C112.439 18.8948 111.398 21.436 110.254 23.92C109.968 24.5266 110.952 26.4955 111.478 26.4612ZM115.322 19.055C116.775 20.9438 116.673 21.1613 113.95 22.0312C114.407 21.0353 114.83 20.1081 115.322 19.055Z" fill="white"/>
<path d="M318.299 112.757C307.395 110.125 296.492 107.503 285.588 104.848C284.444 104.573 283.883 104.882 283.609 106.015C280.966 117.016 278.334 128.028 275.634 139.017C275.302 140.379 275.68 140.928 276.973 141.237C287.888 143.847 298.791 146.48 309.683 149.147C310.988 149.468 311.56 149.021 311.834 147.819C312.395 145.37 312.99 142.931 313.573 140.493C313.951 138.925 313.711 138.513 312.2 138.147C308.31 137.219 304.42 136.292 300.542 135.365C297.933 134.735 295.336 134.094 292.727 133.465C292.052 133.305 291.686 132.915 291.721 132.229C291.743 131.668 292.052 131.233 292.613 131.187C293.048 131.153 293.505 131.278 293.952 131.381C299.626 132.744 305.301 134.117 310.976 135.491C312.475 135.857 312.818 135.64 313.184 134.129C313.653 132.183 314.122 130.225 314.592 128.268C315.141 125.933 315.072 125.83 312.658 125.246C307.2 123.941 301.743 122.636 296.297 121.308C295.496 121.114 294.375 121.056 294.741 119.751C295.061 118.641 295.919 118.939 296.766 119.145C303.116 120.702 309.489 122.213 315.839 123.758C316.685 123.964 317.52 123.987 317.772 123.048C318.55 120.141 319.214 117.199 319.854 114.543C319.957 113.124 319.122 112.952 318.299 112.757Z" fill="white"/>
<path d="M130.545 124.381C130.167 121.085 130.03 121.05 126.735 121.485C120.774 122.275 114.801 122.95 108.829 123.672C107.982 123.729 107.067 123.889 106.976 122.664C106.884 121.485 107.776 121.462 108.635 121.359C114.527 120.672 120.408 119.94 126.311 119.253C127.444 119.127 127.959 118.658 127.81 117.479C127.513 115.121 127.227 112.763 126.975 110.405C126.849 109.248 126.277 108.825 125.144 108.962C122.158 109.34 119.16 109.672 116.174 110.027C113.097 110.393 110.008 110.748 106.93 111.137C106.175 111.229 105.648 111.011 105.477 110.256C105.282 109.42 105.866 109.123 106.529 108.951C106.838 108.871 107.159 108.848 107.479 108.813C113.909 108.069 120.328 107.314 126.757 106.57C127.867 106.444 128.348 105.883 128.199 104.727C127.879 102.323 127.604 99.9192 127.341 97.5154C127.112 95.3977 126.849 95.1688 124.778 95.4206C114.035 96.7027 103.303 97.9733 92.5596 99.2553C90.2027 99.5415 90.054 99.7704 90.3629 102.117C90.8206 105.551 91.2439 108.985 91.6443 112.431C92.5024 119.722 93.3262 127.014 94.1957 134.294C94.4703 136.618 94.6991 136.71 97.1132 136.401C101.415 135.863 105.717 135.359 110.03 134.844C116.643 134.054 123.256 133.241 129.881 132.474C131.059 132.337 131.437 131.765 131.288 130.631C131.002 128.548 130.785 126.465 130.545 124.381Z" fill="white"/>
<path d="M272.922 116.894C270.885 115.371 268.46 115.177 266.091 114.787C262.956 114.261 259.799 113.78 256.664 113.208C255.531 113.002 255.039 111.994 255.646 111.25C256.103 110.689 256.732 110.724 257.407 110.827C263.929 111.903 270.462 112.944 276.995 114.032C277.956 114.192 278.494 113.952 278.654 112.979C279.089 110.369 279.535 107.759 279.958 105.149C280.118 104.176 279.741 103.672 278.665 103.501C272.739 102.562 266.812 101.532 260.886 100.559C257.648 100.032 254.41 99.5286 251.71 99.105C246.47 99.0822 242.854 102.173 242.053 106.889C241.722 108.823 241.378 110.747 241.046 112.67C240.223 117.535 243.461 122.354 248.209 123.235C251.161 123.785 254.135 124.185 257.099 124.666C258.494 124.895 259.879 125.112 261.263 125.399C261.904 125.525 262.339 125.959 262.201 126.669C262.076 127.322 261.526 127.505 260.954 127.482C260.359 127.459 259.776 127.356 259.192 127.264C252.98 126.246 246.767 125.215 240.555 124.185C239.674 124.036 239.182 124.3 239.033 125.25C238.621 127.86 238.163 130.458 237.717 133.057C237.511 134.236 238.072 134.636 239.193 134.819C247.774 136.182 256.355 137.567 264.924 139.02C269.032 139.719 273.025 137.796 274.764 134.041C276.08 131.214 276.251 128.123 276.594 125.101C276.983 121.77 275.668 118.965 272.922 116.894Z" fill="white"/>
<path d="M86.7999 101.746C86.594 100.636 86.0334 100.396 85.0838 100.567C81.4569 101.231 77.8415 101.918 74.2146 102.593C73.3107 102.765 72.9103 103.246 73.1162 104.242C73.7112 107.149 74.2375 110.068 74.7752 112.987C74.8553 113.434 74.9011 113.891 74.9125 114.338C74.9239 114.933 74.5349 115.265 74.0086 115.368C73.448 115.483 73.0247 115.185 72.8073 114.67C72.67 114.338 72.6014 113.972 72.5327 113.617C71.9836 110.709 71.4229 107.79 70.8852 104.871C70.7365 104.07 70.439 103.475 69.3063 103.532C69.0889 103.566 68.677 103.635 68.2766 103.715C65.6451 104.207 63.0022 104.7 60.3707 105.215C56.6294 105.959 56.7781 105.329 57.5561 109.416C59.524 119.787 61.4805 130.158 63.4141 140.54C63.7459 142.303 64.0204 142.497 65.7938 142.154C69.0088 141.524 72.2238 140.918 75.4502 140.322C77.258 139.99 77.4753 139.704 77.1207 137.838C76.6058 135.194 76.0681 132.561 75.6104 129.906C75.4617 129.036 74.9125 127.777 76.2511 127.456C77.7042 127.113 77.7156 128.521 77.9101 129.448C78.4936 132.31 79.0428 135.183 79.5348 138.056C79.7064 139.075 80.2212 139.384 81.1365 139.212C84.8435 138.514 88.5505 137.804 92.2574 137.106C93.0926 136.946 93.3672 136.476 93.207 135.629C91.0561 124.343 88.9051 113.044 86.7999 101.746Z" fill="white"/>
<path d="M172.797 94.9908C172.763 93.6973 172.26 93.3195 171.058 93.3653C167.546 93.4912 164.033 93.6057 160.51 93.64C159.217 93.6515 158.839 94.1666 158.896 95.3914C159.022 98.3561 159.079 101.332 159.148 104.297C159.171 105.19 159.205 106.22 157.992 106.232C156.883 106.243 156.871 105.27 156.848 104.412C156.78 101.447 156.665 98.4706 156.608 95.5059C156.585 94.3039 156.093 93.7774 154.846 93.8346C151.334 93.9834 147.821 94.0979 144.297 94.1322C142.97 94.1437 142.547 94.6473 142.593 95.9408C142.81 101.515 142.959 107.09 143.13 112.653C143.119 112.653 143.096 112.653 143.085 112.653C143.268 118.411 143.462 124.157 143.622 129.915C143.645 130.923 143.988 131.461 145.064 131.426C148.714 131.3 152.363 131.174 156.025 131.083C157.146 131.06 157.558 130.556 157.523 129.469C157.42 126.779 157.375 124.077 157.306 121.387C157.283 120.701 157.203 120.025 157.363 119.338C157.489 118.812 157.832 118.537 158.301 118.48C158.793 118.411 159.205 118.663 159.377 119.144C159.503 119.521 159.594 119.934 159.606 120.334C159.709 123.299 159.846 126.275 159.846 129.24C159.846 130.602 160.418 130.991 161.665 130.934C165.132 130.797 168.61 130.728 172.077 130.636C173.541 130.591 173.804 130.316 173.758 128.816C173.438 117.564 173.083 106.277 172.797 94.9908Z" fill="white"/>
<path d="M238.577 97.2313C234.904 96.8879 231.22 96.5216 227.547 96.1782C226.632 96.0866 226.072 96.43 225.98 97.4259C225.339 104.34 224.687 111.254 224.035 118.156C223.943 119.186 224.001 120.594 222.559 120.446C221.129 120.297 221.609 118.9 221.69 117.973C222.307 111.151 222.948 104.328 223.635 97.5175C223.749 96.3613 223.383 95.789 222.227 95.686C218.543 95.3655 214.871 95.0221 211.186 94.6901C210.283 94.61 209.836 95.0106 209.779 95.9264C209.699 97.197 209.573 98.479 209.459 99.7496C208.727 107.373 207.983 115.008 207.399 120.972C206.93 128.035 210.717 132.259 216.095 132.614C219.687 132.854 223.28 133.198 226.85 133.644C232.09 134.285 236.746 130.714 237.25 125.505C238.119 116.599 238.943 107.682 239.812 98.7766C239.915 97.7693 239.526 97.3229 238.577 97.2313Z" fill="white"/>
<path d="M197.309 93.9772C193.294 93.8283 189.278 93.7139 185.262 93.6452C180.216 93.5651 176.269 97.2968 176.063 102.345C175.8 108.732 175.571 115.12 175.354 121.507C175.194 126.429 179.152 130.71 184.106 130.905C188.214 131.065 192.321 131.18 196.428 131.237C201.371 131.306 205.364 127.494 205.49 122.549C205.57 119.355 205.501 116.161 205.501 112.968C205.719 112.968 205.936 112.968 206.165 112.968C206.165 109.865 206.085 106.763 206.188 103.661C206.359 98.4415 202.527 94.1718 197.309 93.9772ZM191.749 118.84C191.715 119.595 191.532 120.328 190.502 120.271C189.449 120.213 189.438 119.424 189.438 118.691C189.415 116.596 189.426 114.501 189.426 112.407C189.575 112.407 189.712 112.407 189.861 112.407C189.861 110.312 189.85 108.217 189.861 106.122C189.861 105.344 190.01 104.634 191.028 104.634C192.081 104.623 192.195 105.424 192.172 106.145C192.069 110.369 191.921 114.604 191.749 118.84Z" fill="white"/>
<path d="M52.034 106.992C43.9908 109.029 35.9362 111.067 27.8815 113.07C26.8862 113.311 26.4171 113.768 26.6688 114.776C27.4697 117.992 28.282 121.209 29.1058 124.414C29.346 125.33 29.8723 125.662 30.8334 125.353C31.8631 125.021 32.95 124.815 34.0026 124.551C35.9591 124.059 36.2565 124.242 36.7485 126.211C38.4075 132.839 40.0665 139.467 41.7254 146.083C42.1145 147.617 42.4806 147.834 44.048 147.457C47.3545 146.644 50.6496 145.808 53.9561 144.984C55.5236 144.595 55.6723 144.332 55.2604 142.66C53.5671 135.872 51.8967 129.084 50.1691 122.308C49.8602 121.106 50.2148 120.488 51.3819 120.202C52.6633 119.893 53.9218 119.515 55.2032 119.229C55.9583 119.057 56.3016 118.656 56.2787 117.672C55.4664 114.49 54.6426 111.078 53.7273 107.702C53.5099 106.98 52.8234 106.797 52.034 106.992Z" fill="white"/>
<path d="M139.254 123.598C138.487 123.621 137.709 123.598 136.943 123.598C136.222 123.598 135.49 123.575 134.769 123.61C134.437 123.633 133.854 123.369 133.934 124.102C133.98 124.56 134.071 124.96 134.723 124.949C136.268 124.903 137.801 124.926 139.345 124.938C139.86 124.949 140.089 124.766 140.066 124.228C140.032 123.678 139.723 123.587 139.254 123.598Z" fill="white"/>
</g>
<defs>
<clipPath id="clip0_541_542">
<rect width="345.605" height="247.997" fill="white" transform="translate(0.197266 0.959473)"/>
</clipPath>
</defs>
</svg>
